<svg width="20" height="20" viewBox="0 0 15 15" fill="none" xmlns="http://www.w3.org/2000/svg">
    <g clip-path="url(#clip0_2670_22624)">
        <path fill-rule="evenodd" clip-rule="evenodd"
            d="M6 8.66667C6.35362 8.66667 6.69276 8.80714 6.94281 9.05719C7.19286 9.30724 7.33333 9.64638 7.33333 10V12.6667C7.33333 13.0203 7.19286 13.3594 6.94281 13.6095C6.69276 13.8595 6.35362 14 6 14H3.33333C2.97971 14 2.64057 13.8595 2.39052 13.6095C2.14048 13.3594 2 13.0203 2 12.6667V10C2 9.64638 2.14048 9.30724 2.39052 9.05719C2.64057 8.80714 2.97971 8.66667 3.33333 8.66667H6ZM12.6667 8.66667C13.0031 8.66656 13.327 8.7936 13.5737 9.02233C13.8204 9.25106 13.9714 9.56456 13.9967 9.9L14 10V12.6667C14.0001 13.0031 13.8731 13.327 13.6443 13.5737C13.4156 13.8204 13.1021 13.9714 12.7667 13.9967L12.6667 14H10C9.66362 14.0001 9.33962 13.8731 9.09297 13.6443C8.84631 13.4156 8.69523 13.1021 8.67 12.7667L8.66667 12.6667V10C8.66656 9.66362 8.7936 9.33962 9.02233 9.09297C9.25106 8.84631 9.56456 8.69523 9.9 8.67L10 8.66667H12.6667ZM6 10H3.33333V12.6667H6V10ZM12.6667 10H10V12.6667H12.6667V10ZM12.6667 2C13.0031 1.99989 13.327 2.12694 13.5737 2.35566C13.8204 2.58439 13.9714 2.8979 13.9967 3.23333L14 3.33333V6C14.0001 6.33638 13.8731 6.66038 13.6443 6.90703C13.4156 7.15369 13.1021 7.30477 12.7667 7.33L12.6667 7.33333H10C9.66362 7.33344 9.33962 7.2064 9.09297 6.97767C8.84631 6.74894 8.69523 6.43544 8.67 6.1L8.66667 6V3.33333C8.66656 2.99695 8.7936 2.67296 9.02233 2.4263C9.25106 2.17965 9.56456 2.02856 9.9 2.00333L10 2H12.6667ZM6 2C6.33638 1.99989 6.66038 2.12694 6.90703 2.35566C7.15369 2.58439 7.30477 2.8979 7.33 3.23333L7.33333 3.33333V6C7.33344 6.33638 7.2064 6.66038 6.97767 6.90703C6.74894 7.15369 6.43544 7.30477 6.1 7.33L6 7.33333H3.33333C2.99695 7.33344 2.67296 7.2064 2.4263 6.97767C2.17965 6.74894 2.02856 6.43544 2.00333 6.1L2 6V3.33333C1.99989 2.99695 2.12694 2.67296 2.35566 2.4263C2.58439 2.17965 2.8979 2.02856 3.23333 2.00333L3.33333 2H6ZM12.6667 3.33333H10V6H12.6667V3.33333ZM6 3.33333H3.33333V6H6V3.33333Z"
            fill="white" />
    </g>
    <defs>
        <clipPath id="clip0_2670_22624">
            <rect width="24" height="24" fill="white" />
        </clipPath>
    </defs>
</svg>