<svg width="256" height="256" viewBox="0 0 256 256" fill="none" xmlns="http://www.w3.org/2000/svg">
<g clip-path="url(#clip0_302_228)">
<path d="M254.953 144.253C263.912 74.122 214.384 10.005 144.381 1.047C74.378 -7.912 10.005 41.616 1.047 111.619C-7.912 181.622 41.616 245.867 111.619 254.953C181.75 263.912 245.867 214.384 254.953 144.253Z" fill="#FF6C37"/>
<path d="M174.2 82.184L120.193 136.191L104.963 120.961C158.074 67.851 163.322 72.458 174.2 82.184Z" fill="white"/>
<path d="M120.193 137.47C119.809 137.47 119.553 137.342 119.297 137.086L103.94 121.857C103.819 121.741 103.722 121.603 103.656 121.449C103.59 121.295 103.556 121.129 103.556 120.962C103.556 120.794 103.59 120.628 103.656 120.474C103.722 120.32 103.819 120.182 103.94 120.066C157.946 66.059 163.577 71.178 174.967 81.416C175.223 81.672 175.351 81.928 175.351 82.312C175.351 82.696 175.223 82.952 174.967 83.208L120.961 137.086C120.833 137.342 120.449 137.47 120.193 137.47ZM106.756 120.961L120.193 134.399L172.28 82.312C162.81 73.866 156.41 71.305 106.756 120.961Z" fill="#FF6C37"/>
<path d="M135.678 151.676L120.961 136.958L174.967 82.952C189.429 97.542 167.801 121.217 135.678 151.676Z" fill="white"/>
<path d="M135.678 152.956C135.294 152.956 135.038 152.828 134.783 152.572L120.065 137.854C119.809 137.598 119.809 137.342 119.809 136.958C119.809 136.575 119.937 136.318 120.193 136.063L174.2 82.056C174.316 81.9346 174.455 81.838 174.609 81.7719C174.763 81.7059 174.928 81.6718 175.096 81.6718C175.264 81.6718 175.429 81.7059 175.583 81.7719C175.737 81.838 175.876 81.9346 175.992 82.056C177.626 83.5681 178.917 85.4128 179.778 87.4659C180.639 89.519 181.05 91.7327 180.983 93.958C180.727 108.164 164.603 126.208 136.703 152.572C136.319 152.828 135.935 152.956 135.679 152.956H135.678ZM122.753 136.958C130.943 145.277 134.399 148.604 135.678 149.884C157.178 129.408 178.038 108.42 178.167 93.958C178.295 90.631 177.015 87.303 174.839 84.744L122.753 136.958Z" fill="#FF6C37"/>
<path d="M105.22 121.345L116.098 132.223C116.354 132.479 116.354 132.735 116.098 132.991C115.97 133.119 115.97 133.119 115.842 133.119L93.318 137.982C92.166 138.11 91.142 137.342 90.886 136.191C90.758 135.551 91.014 134.911 91.398 134.527L104.452 121.473C104.708 121.217 105.092 121.089 105.22 121.345Z" fill="white"/>
<path d="M92.934 139.262C91.014 139.262 89.607 137.726 89.607 135.807C89.607 134.911 89.991 134.015 90.631 133.375L103.684 120.321C104.452 119.681 105.476 119.681 106.244 120.321L117.122 131.199C117.89 131.839 117.89 132.991 117.122 133.759C116.866 134.015 116.61 134.143 116.226 134.271L93.702 139.134C93.446 139.134 93.19 139.262 92.934 139.262ZM104.836 122.753L92.294 135.295C92.038 135.551 91.91 135.935 92.166 136.319C92.294 136.703 92.678 136.83 93.062 136.703L114.178 132.095L104.836 122.753Z" fill="#FF6C37"/>
<path d="M202.738 52.238C194.548 44.303 181.366 44.559 173.432 52.878C165.497 61.196 165.753 74.25 174.072 82.184C177.355 85.3566 181.596 87.3533 186.134 87.8627C190.671 88.3721 195.249 87.3655 199.154 85L184.564 70.41L202.737 52.238H202.738Z" fill="white"/>
<path d="M188.405 89.223C176.247 89.223 166.393 79.369 166.393 67.211C166.393 55.053 176.247 45.199 188.405 45.199C194.035 45.199 199.539 47.375 203.635 51.342C203.89 51.598 204.018 51.854 204.018 52.238C204.018 52.622 203.89 52.878 203.634 53.134L186.357 70.41L199.923 83.976C200.435 84.488 200.435 85.256 199.923 85.768L199.667 86.024C196.339 88.071 192.372 89.223 188.405 89.223ZM188.405 47.887C177.655 47.887 168.952 56.589 169.08 67.339C169.08 78.089 177.783 86.792 188.533 86.664C191.476 86.664 194.42 86.024 197.107 84.616L183.67 71.306C183.414 71.05 183.286 70.794 183.286 70.41C183.286 70.027 183.414 69.77 183.67 69.515L200.819 52.365C197.363 49.422 193.012 47.887 188.405 47.887Z" fill="#FF6C37"/>
<path d="M203.122 52.622L202.866 52.366L184.566 70.41L199.027 84.872C200.435 83.976 201.842 82.952 202.994 81.8C204.933 79.9009 206.476 77.6358 207.533 75.1361C208.59 72.6364 209.14 69.9517 209.152 67.2377C209.164 64.5237 208.637 61.8343 207.602 59.3255C206.567 56.8166 205.044 54.5381 203.122 52.622Z" fill="white"/>
<path d="M199.155 86.28C198.771 86.28 198.515 86.152 198.259 85.896L183.669 71.306C183.414 71.05 183.286 70.794 183.286 70.41C183.286 70.027 183.414 69.77 183.67 69.515L201.842 51.342C201.958 51.2206 202.097 51.124 202.251 51.0579C202.405 50.9919 202.57 50.9579 202.738 50.9579C202.906 50.9579 203.071 50.9919 203.225 51.0579C203.379 51.124 203.518 51.2206 203.634 51.342L204.018 51.598C212.593 60.172 212.593 73.994 204.146 82.696C202.866 83.976 201.459 85.128 199.923 86.024C199.539 86.152 199.283 86.28 199.155 86.28ZM186.357 70.41L199.283 83.336C200.307 82.696 201.331 81.8 202.098 81.033C209.393 73.738 209.777 61.836 202.738 54.157L186.358 70.41H186.357Z" fill="#FF6C37"/>
<path d="M176.375 84.488C174.898 83.013 172.896 82.1846 170.808 82.1846C168.72 82.1846 166.718 83.013 165.241 84.488L116.994 132.735L125.056 140.798L176.119 96.006C179.447 93.19 179.702 88.199 176.887 84.872C176.631 84.744 176.503 84.616 176.375 84.488Z" fill="white"/>
<path d="M124.928 142.078C124.544 142.078 124.288 141.95 124.032 141.694L115.97 133.631C115.849 133.515 115.752 133.376 115.686 133.222C115.62 133.068 115.586 132.903 115.586 132.735C115.586 132.567 115.62 132.402 115.686 132.248C115.752 132.094 115.849 131.955 115.97 131.839L164.217 83.592C165.064 82.7403 166.071 82.0644 167.18 81.6032C168.289 81.1419 169.479 80.9045 170.68 80.9045C171.881 80.9045 173.071 81.1419 174.18 81.6032C175.289 82.0644 176.296 82.7403 177.143 83.592C177.995 84.4391 178.671 85.4461 179.132 86.5553C179.593 87.6644 179.83 88.8538 179.83 90.055C179.83 91.2562 179.593 92.4456 179.132 93.5547C178.671 94.6639 177.995 95.6709 177.143 96.518L176.759 96.902L125.696 141.694C125.568 141.95 125.312 142.078 124.928 142.078ZM118.785 132.735L125.056 139.006L175.223 94.982C178.039 92.678 178.295 88.455 175.991 85.64C173.688 82.824 169.464 82.568 166.649 84.872C166.521 85 166.393 85.128 166.137 85.256L118.785 132.735Z" fill="#FF6C37"/>
<path d="M80.008 187.637C79.497 187.893 79.241 188.405 79.368 188.917L81.544 198.131C82.056 199.411 81.288 200.947 79.88 201.331C78.857 201.715 77.705 201.331 77.065 200.563L62.987 186.613L108.931 140.67L124.801 140.926L135.551 151.676C132.991 153.851 117.506 168.825 80.008 187.637Z" fill="white"/>
<path d="M78.985 202.61C77.961 202.61 76.937 202.227 76.297 201.459L62.347 187.509C62.092 187.253 61.964 186.997 61.964 186.614C61.964 186.23 62.092 185.974 62.348 185.718L108.291 139.774C108.547 139.518 108.931 139.39 109.187 139.39L125.057 139.646C125.44 139.646 125.697 139.774 125.952 140.03L136.702 150.78C136.958 151.036 137.086 151.42 137.086 151.804C137.086 152.188 136.958 152.444 136.574 152.7L135.678 153.467C122.113 165.369 103.684 177.271 80.776 188.661L82.952 197.748C83.336 199.411 82.568 201.203 81.032 202.098C80.264 202.483 79.624 202.61 78.985 202.61ZM64.907 186.614L78.089 199.667C78.473 200.307 79.241 200.563 79.88 200.179C80.52 199.795 80.776 199.027 80.392 198.387L78.217 189.173C77.961 188.021 78.473 186.997 79.497 186.486C102.148 175.096 120.449 163.322 133.887 151.676L124.417 142.206L109.699 141.95L64.907 186.614Z" fill="#FF6C37"/>
<path d="M52.11 197.62L63.115 186.614L79.497 202.994L53.389 201.203C52.237 201.075 51.469 200.051 51.598 198.899C51.598 198.387 51.726 197.875 52.109 197.619L52.11 197.62Z" fill="white"/>
<path d="M79.497 204.146L53.261 202.355C51.341 202.227 50.061 200.563 50.19 198.643C50.318 197.875 50.574 197.108 51.214 196.596L62.22 185.59C62.3355 185.469 62.4745 185.372 62.6284 185.306C62.7823 185.24 62.948 185.206 63.1155 185.206C63.283 185.206 63.4487 185.24 63.6026 185.306C63.7565 185.372 63.8955 185.469 64.011 185.59L80.392 201.97C80.776 202.355 80.904 202.867 80.648 203.378C80.392 203.89 80.008 204.146 79.497 204.146ZM63.115 188.406L53.005 198.516C52.621 198.771 52.621 199.411 53.005 199.667C53.133 199.795 53.261 199.923 53.517 199.923L76.169 201.459L63.115 188.405V188.406ZM104.452 146.557C103.684 146.557 103.172 145.917 103.172 145.277C103.172 144.893 103.3 144.637 103.556 144.381L115.97 131.967C116.086 131.846 116.225 131.749 116.379 131.683C116.533 131.617 116.698 131.583 116.866 131.583C117.034 131.583 117.199 131.617 117.353 131.683C117.507 131.749 117.646 131.846 117.762 131.967L125.824 140.03C126.208 140.414 126.336 140.798 126.208 141.31C126.08 141.694 125.696 142.078 125.184 142.206L104.708 146.556H104.452V146.557ZM116.866 134.655L108.419 143.101L122.241 140.158L116.866 134.655Z" fill="#FF6C37"/>
<path d="M124.8 140.926L110.723 143.997C109.699 144.253 108.675 143.613 108.419 142.589C108.291 141.949 108.419 141.309 108.931 140.798L116.738 132.991L124.8 140.926Z" fill="white"/>
<path d="M110.467 145.277C110.046 145.281 109.628 145.201 109.237 145.042C108.847 144.883 108.493 144.647 108.195 144.349C107.897 144.051 107.661 143.697 107.502 143.307C107.343 142.916 107.263 142.498 107.267 142.077C107.267 141.182 107.651 140.414 108.163 139.774L115.97 131.967C116.086 131.846 116.225 131.749 116.379 131.683C116.533 131.617 116.698 131.583 116.866 131.583C117.034 131.583 117.199 131.617 117.353 131.683C117.507 131.749 117.646 131.846 117.762 131.967L125.824 140.03C126.208 140.414 126.336 140.798 126.208 141.31C126.08 141.694 125.696 142.078 125.184 142.206L111.107 145.277H110.467ZM116.866 134.655L109.955 141.565C109.699 141.822 109.699 142.078 109.827 142.333C109.955 142.589 110.211 142.717 110.595 142.717L122.369 140.157L116.866 134.655ZM203.25 64.907C202.994 64.14 202.098 63.756 201.33 64.012C200.563 64.268 200.179 65.163 200.435 65.932C200.435 66.059 200.563 66.187 200.563 66.315C201.331 67.851 201.075 69.771 200.051 71.178C199.539 71.818 199.667 72.714 200.179 73.226C200.819 73.738 201.714 73.61 202.226 72.97C204.146 70.538 204.53 67.467 203.25 64.907Z" fill="#FF6C37"/>
</g>
<defs>
<clipPath id="clip0_302_228">
<rect width="256" height="256" fill="white"/>
</clipPath>
</defs>
</svg>
