<svg width="20" height="20" viewBox="0 0 16 16" fill="none" xmlns="http://www.w3.org/2000/svg">
    <path
        d="M4.66667 5.99935V4.66602H14V5.99935H4.66667ZM4.66667 8.66602V7.33268H14V8.66602H4.66667ZM4.66667 11.3327V9.99935H14V11.3327H4.66667ZM2.66667 5.99935C2.47778 5.99935 2.31956 5.93535 2.192 5.80735C2.06444 5.67935 2.00044 5.52113 2 5.33268C2 5.14379 2.064 4.98557 2.192 4.85802C2.32 4.73046 2.47822 4.66646 2.66667 4.66602C2.85556 4.66602 3.014 4.73002 3.142 4.85802C3.27 4.98602 3.33378 5.14424 3.33333 5.33268C3.33333 5.52157 3.26933 5.68002 3.14133 5.80802C3.01333 5.93602 2.85511 5.99979 2.66667 5.99935ZM2.66667 8.66602C2.47778 8.66602 2.31956 8.60202 2.192 8.47402C2.06444 8.34602 2.00044 8.18779 2 7.99935C2 7.81046 2.064 7.65224 2.192 7.52468C2.32 7.39713 2.47822 7.33313 2.66667 7.33268C2.85556 7.33268 3.014 7.39668 3.142 7.52468C3.27 7.65268 3.33378 7.8109 3.33333 7.99935C3.33333 8.18824 3.26933 8.34668 3.14133 8.47468C3.01333 8.60268 2.85511 8.66646 2.66667 8.66602ZM2.66667 11.3327C2.47778 11.3327 2.31956 11.2687 2.192 11.1407C2.06444 11.0127 2.00044 10.8545 2 10.666C2 10.4771 2.064 10.3189 2.192 10.1913C2.32 10.0638 2.47822 9.99979 2.66667 9.99935C2.85556 9.99935 3.014 10.0633 3.142 10.1913C3.27 10.3193 3.33378 10.4776 3.33333 10.666C3.33333 10.8549 3.26933 11.0133 3.14133 11.1413C3.01333 11.2693 2.85511 11.3331 2.66667 11.3327Z"
        fill="#F08519" />
</svg>