<svg width="343" height="38" viewBox="0 0 343 38" fill="none" xmlns="http://www.w3.org/2000/svg">
<g clip-path="url(#clip0_3_36)">
<path d="M15.3529 22.151L13.6053 30.875H11.9173C11.5963 30.875 11.3229 30.7574 11.1089 30.5223C10.883 30.2871 10.776 29.9814 10.776 29.6169C10.776 29.5581 10.7879 29.5111 10.7879 29.4641C10.7998 29.4171 10.7998 29.3583 10.8117 29.2877L12.2977 22.151H7.15022L5.66424 29.4758C5.55725 29.9814 5.34327 30.3459 5.03418 30.5575C4.7251 30.7692 4.35658 30.8867 3.95239 30.8867H2.29997L4.07127 22.1627H1.02797C0.706999 22.1627 0.457354 22.0804 0.279036 21.9276C0.100718 21.7747 0.00561523 21.4926 0.00561523 21.1046C0.00561523 21.034 0.0175031 20.9635 0.0175031 20.8812C0.029391 20.7871 0.029391 20.7048 0.0412788 20.6225L0.207709 19.435H4.46357L5.81878 12.7568H0.98042L1.25384 11.2166C1.32517 10.8168 1.47971 10.5229 1.72936 10.323C1.979 10.1349 2.3713 10.0291 2.91814 10.0291H6.21108L7.70895 2.62188C7.79217 2.21037 7.98237 1.88117 8.29146 1.65777C8.58866 1.42263 8.94529 1.30505 9.36137 1.30505H11.0257L9.27815 10.0291H14.4256L16.1731 1.30505H17.8255C18.1703 1.30505 18.4675 1.41087 18.6933 1.61074C18.9192 1.82238 19.0381 2.08104 19.0381 2.41025C19.0381 2.51607 19.0262 2.61013 19.0143 2.68067L17.4927 10.0291H21.915L21.6415 11.5928C21.5702 11.9926 21.4157 12.2865 21.1541 12.4746C20.8926 12.6627 20.5003 12.7568 19.9772 12.7568H17.1004L15.7452 19.435H19.4779C19.8108 19.435 20.0723 19.5173 20.2507 19.6701C20.429 19.823 20.5241 20.1052 20.5241 20.5049C20.5241 20.5755 20.5241 20.646 20.5122 20.7283C20.5003 20.7989 20.4884 20.8812 20.4765 20.9635L20.2863 22.151H15.341H15.3529ZM7.53064 19.4232H12.6781L14.0333 12.745H8.88585L7.53064 19.4232ZM135.789 13.4387C135.622 13.7444 135.361 13.8973 135.016 13.8973C134.802 13.8973 134.576 13.8267 134.303 13.6739C134.041 13.521 133.72 13.3564 133.34 13.1683C132.96 12.9802 132.496 12.8156 131.973 12.651C131.45 12.4981 130.82 12.4158 130.095 12.4158C129.465 12.4158 128.906 12.4864 128.406 12.651C127.907 12.8038 127.479 13.0272 127.123 13.3094C126.766 13.5798 126.493 13.8973 126.314 14.2617C126.124 14.6262 126.029 15.026 126.029 15.4492C126.029 15.9901 126.183 16.4369 126.504 16.7896C126.814 17.1423 127.23 17.4598 127.741 17.7184C128.252 17.9771 128.834 18.2122 129.488 18.4003C130.142 18.6002 130.82 18.8119 131.509 19.0352C132.199 19.2586 132.864 19.5173 133.518 19.7877C134.172 20.0581 134.755 20.4109 135.266 20.8224C135.777 21.2339 136.193 21.7395 136.514 22.3391C136.823 22.9387 136.978 23.6559 136.978 24.5025C136.978 25.4666 136.799 26.3484 136.455 27.1714C136.11 27.9944 135.587 28.6999 134.909 29.2995C134.232 29.8991 133.399 30.3694 132.401 30.7104C131.414 31.0513 130.273 31.2277 128.977 31.2277C127.503 31.2277 126.172 30.9925 124.971 30.5223C123.77 30.052 122.76 29.4523 121.928 28.7234L122.807 27.289C122.914 27.1126 123.045 26.9715 123.2 26.8657C123.354 26.7716 123.556 26.7246 123.806 26.7246C124.056 26.7246 124.317 26.8187 124.602 27.0185C124.876 27.2067 125.221 27.4301 125.613 27.6534C126.005 27.8886 126.493 28.1002 127.051 28.2883C127.61 28.4765 128.311 28.5823 129.167 28.5823C129.892 28.5823 130.523 28.4882 131.069 28.3001C131.616 28.112 132.068 27.8651 132.425 27.5476C132.781 27.2302 133.055 26.8657 133.233 26.4542C133.411 26.0427 133.494 25.5959 133.494 25.1256C133.494 24.5495 133.34 24.0792 133.031 23.6912C132.722 23.315 132.306 22.9857 131.783 22.7271C131.271 22.4567 130.689 22.2215 130.023 22.0216C129.358 21.8218 128.692 21.6101 128.002 21.3985C127.313 21.1751 126.635 20.9282 125.981 20.646C125.316 20.3638 124.733 20.0111 124.21 19.5878C123.699 19.1646 123.283 18.6355 122.974 18.0006C122.665 17.3775 122.498 16.6132 122.498 15.7197C122.498 14.9201 122.665 14.1559 122.998 13.4152C123.33 12.6745 123.818 12.0278 124.46 11.4752C125.102 10.9226 125.886 10.4758 126.814 10.1466C127.741 9.81743 128.811 9.65282 129.999 9.65282C131.39 9.65282 132.639 9.87622 133.744 10.3112C134.85 10.7463 135.801 11.3459 136.609 12.1101L135.777 13.4505L135.789 13.4387ZM150.161 9.64107C151.421 9.64107 152.598 9.8527 153.668 10.276C154.738 10.6992 155.665 11.2989 156.438 12.0866C157.223 12.8744 157.829 13.862 158.269 15.026C158.709 16.19 158.923 17.5185 158.923 19.0117C158.923 19.5878 158.863 19.9758 158.732 20.164C158.602 20.3521 158.376 20.4579 158.019 20.4579H143.956C143.98 21.7747 144.17 22.9387 144.503 23.9146C144.836 24.9022 145.299 25.7135 145.882 26.3719C146.464 27.0303 147.166 27.5124 147.962 27.8416C148.77 28.159 149.674 28.3354 150.672 28.3354C151.6 28.3354 152.408 28.2296 153.086 28.0062C153.763 27.7945 154.334 27.5594 154.821 27.3125C155.309 27.0656 155.713 26.8422 156.046 26.6305C156.379 26.4072 156.652 26.3131 156.89 26.3131C157.199 26.3131 157.437 26.4307 157.603 26.6658L158.649 28.0179C158.186 28.5588 157.639 29.0408 156.997 29.4406C156.355 29.8521 155.677 30.1813 154.94 30.44C154.215 30.6986 153.454 30.8985 152.67 31.0278C151.885 31.1572 151.124 31.2159 150.351 31.2159C148.889 31.2159 147.546 30.969 146.322 30.4752C145.085 29.9814 144.027 29.276 143.136 28.3354C142.244 27.3948 141.531 26.219 141.031 24.8317C140.532 23.4443 140.282 21.8453 140.282 20.0346C140.282 18.5767 140.508 17.2128 140.96 15.9548C141.412 14.685 142.054 13.5916 142.91 12.6627C143.754 11.7339 144.788 11.0049 146.012 10.4758C147.237 9.94676 148.616 9.67634 150.138 9.67634L150.161 9.64107ZM150.244 12.3688C148.449 12.3688 147.035 12.8744 146.012 13.8973C144.978 14.9201 144.348 16.331 144.098 18.1417H155.594C155.594 17.2834 155.475 16.5074 155.237 15.8137C155 15.1083 154.655 14.4969 154.191 13.9796C153.728 13.4622 153.181 13.0625 152.515 12.7803C151.849 12.4981 151.1 12.357 150.244 12.357V12.3688ZM163.654 37.9882V9.97027H165.865C166.388 9.97027 166.733 10.2289 166.864 10.7345L167.173 13.2153C168.076 12.1336 169.111 11.2518 170.276 10.5934C171.441 9.935 172.772 9.60579 174.282 9.60579C175.494 9.60579 176.588 9.84094 177.575 10.2995C178.561 10.758 179.405 11.44 180.095 12.3453C180.784 13.2506 181.331 14.3676 181.7 15.7079C182.08 17.0365 182.259 18.5767 182.259 20.3168C182.259 21.8688 182.045 23.3032 181.628 24.6318C181.212 25.9604 180.618 27.1126 179.833 28.0885C179.049 29.0526 178.098 29.8168 176.968 30.3812C175.839 30.9338 174.555 31.2159 173.141 31.2159C171.833 31.2159 170.715 31.0043 169.8 30.581C168.873 30.1578 168.053 29.5464 167.351 28.7704V38.0117H163.642L163.654 37.9882ZM173.057 12.5687C171.845 12.5687 170.787 12.8391 169.883 13.3917C168.968 13.9443 168.136 14.7203 167.363 15.7314V25.8546C168.041 26.7599 168.79 27.4065 169.61 27.771C170.418 28.1473 171.322 28.3236 172.332 28.3236C174.294 28.3236 175.803 27.6299 176.861 26.2425C177.919 24.8434 178.443 22.8682 178.443 20.2933C178.443 18.9294 178.324 17.7654 178.086 16.7896C177.848 15.8137 177.492 15.0142 177.028 14.3793C176.564 13.7562 176.006 13.2976 175.34 13.0037C174.674 12.7098 173.913 12.5687 173.069 12.5687H173.057ZM195.038 9.64107C196.298 9.64107 197.475 9.8527 198.545 10.276C199.615 10.6992 200.542 11.2989 201.315 12.0866C202.099 12.8744 202.706 13.862 203.146 15.026C203.585 16.19 203.799 17.5185 203.799 19.0117C203.799 19.5878 203.74 19.9758 203.609 20.164C203.478 20.3521 203.253 20.4579 202.896 20.4579H188.833C188.856 21.7747 189.047 22.9387 189.379 23.9146C189.712 24.9022 190.176 25.7135 190.758 26.3719C191.341 27.0303 192.042 27.5124 192.839 27.8416C193.647 28.159 194.551 28.3354 195.549 28.3354C196.476 28.3354 197.285 28.2296 197.962 28.0062C198.64 27.7945 199.211 27.5594 199.698 27.3125C200.185 27.0656 200.59 26.8422 200.922 26.6305C201.255 26.4072 201.529 26.3131 201.767 26.3131C202.076 26.3131 202.313 26.4307 202.48 26.6658L203.526 28.0179C203.062 28.5588 202.515 29.0408 201.874 29.4406C201.232 29.8521 200.554 30.1813 199.817 30.44C199.092 30.6986 198.331 30.8985 197.546 31.0278C196.762 31.1572 196.001 31.2159 195.228 31.2159C193.766 31.2159 192.423 30.969 191.198 30.4752C189.962 29.9814 188.904 29.276 188.012 28.3354C187.121 27.3948 186.407 26.219 185.908 24.8317C185.409 23.4443 185.159 21.8453 185.159 20.0346C185.159 18.5767 185.385 17.2128 185.837 15.9548C186.289 14.685 186.93 13.5916 187.786 12.6627C188.63 11.7339 189.665 11.0049 190.889 10.4758C192.114 9.94676 193.493 9.67634 195.014 9.67634L195.038 9.64107ZM195.121 12.3688C193.326 12.3688 191.911 12.8744 190.889 13.8973C189.855 14.9201 189.225 16.331 188.975 18.1417H200.471C200.471 17.2834 200.352 16.5074 200.114 15.8137C199.876 15.1083 199.532 14.4969 199.068 13.9796C198.604 13.4622 198.057 13.0625 197.392 12.7803C196.726 12.4981 195.977 12.357 195.121 12.357V12.3688ZM208.531 30.8985V9.98203H210.742C211.265 9.98203 211.61 10.2407 211.74 10.7463L212.038 13.0272C212.953 12.0161 213.987 11.2048 215.117 10.5817C216.246 9.95852 217.554 9.65282 219.04 9.65282C220.193 9.65282 221.215 9.84094 222.095 10.2289C222.974 10.6052 223.712 11.146 224.306 11.8397C224.9 12.5334 225.34 13.3682 225.649 14.344C225.958 15.3199 226.113 16.4016 226.113 17.5773V30.8985H222.404V17.5773C222.404 16.0018 222.047 14.7673 221.31 13.8973C220.585 13.0272 219.456 12.5804 217.958 12.5804C216.864 12.5804 215.842 12.8391 214.891 13.3682C213.94 13.8855 213.06 14.6027 212.252 15.4963V30.8985H208.543H208.531ZM234.934 9.98203V23.3267C234.934 24.914 235.302 26.1367 236.039 27.0068C236.776 27.8768 237.894 28.3119 239.38 28.3119C240.462 28.3119 241.484 28.0532 242.447 27.5476C243.41 27.0421 244.289 26.3249 245.098 25.4195V9.99379H248.807V30.9102H246.596C246.073 30.9102 245.728 30.6516 245.597 30.146L245.3 27.9003C244.385 28.8997 243.35 29.711 242.209 30.3224C241.068 30.9338 239.76 31.2395 238.286 31.2395C237.133 31.2395 236.122 31.0513 235.231 30.6633C234.351 30.2871 233.602 29.758 233.008 29.0643C232.413 28.3824 231.962 27.5359 231.665 26.56C231.367 25.5841 231.213 24.5025 231.213 23.3267V9.98203H234.922H234.934ZM254.917 30.8985V0.493789H258.626V12.7921C259.53 11.8397 260.528 11.0755 261.634 10.5111C262.728 9.935 264 9.65282 265.426 9.65282C266.579 9.65282 267.602 9.84094 268.481 10.2289C269.361 10.6052 270.098 11.146 270.692 11.8397C271.287 12.5334 271.727 13.3682 272.036 14.344C272.345 15.3199 272.499 16.4016 272.499 17.5773V30.8985H268.79V17.5773C268.79 16.0018 268.434 14.7673 267.697 13.8973C266.971 13.0272 265.842 12.5804 264.344 12.5804C263.251 12.5804 262.228 12.8391 261.277 13.3682C260.326 13.8855 259.446 14.6027 258.638 15.4963V30.8985H254.929H254.917ZM26.5274 30.8985V13.8855L25.1128 13.5916C24.6254 13.4857 24.2331 13.3094 23.9359 13.0742C23.6387 12.8391 23.4842 12.4981 23.4842 12.0396V9.52349H26.5274V8.30072C26.5274 7.07795 26.7295 5.97275 27.1218 4.98513C27.5141 3.9975 28.0848 3.15097 28.8337 2.44552C29.5826 1.74008 30.4861 1.19923 31.556 0.81124C32.6259 0.423245 33.8385 0.235126 35.2056 0.235126C35.7287 0.235126 36.228 0.270398 36.6797 0.340943C37.1314 0.411487 37.5951 0.529062 38.0825 0.681908L37.9517 3.7506C37.9398 3.96223 37.8804 4.13859 37.7734 4.29144C37.6664 4.43253 37.5356 4.5501 37.3811 4.6324C37.2265 4.72646 37.0601 4.78525 36.8699 4.82052C36.6797 4.86755 36.4895 4.87931 36.3112 4.87931C35.7406 4.87931 35.2294 4.9381 34.7895 5.04391C34.3497 5.14973 33.9811 5.34961 33.6721 5.63178C33.3749 5.91396 33.149 6.2902 32.9944 6.74874C32.8399 7.20728 32.7686 7.79515 32.7686 8.5006V9.51173H37.8566V13.8855H32.9707V30.8867H26.5037L26.5274 30.8985ZM40.674 30.8985V9.48822H44.5138C44.8348 9.48822 45.1082 9.51173 45.3222 9.57052C45.5362 9.62931 45.7145 9.71161 45.869 9.82918C46.0117 9.94676 46.1305 10.0996 46.2019 10.2995C46.2732 10.4876 46.3445 10.7227 46.3921 11.0049L46.7487 13.0154C47.5452 11.7927 48.4368 10.8403 49.4235 10.1349C50.4102 9.42943 51.492 9.07671 52.657 9.07671C53.6437 9.07671 54.4402 9.31186 55.0346 9.79391L54.2024 14.5086C54.143 14.8026 54.036 15.0025 53.8695 15.1083C53.7031 15.2258 53.4772 15.2846 53.2038 15.2846C52.9661 15.2846 52.6926 15.2494 52.3717 15.1906C52.0507 15.1318 51.6465 15.0965 51.1591 15.0965C49.4591 15.0965 48.1277 16.0489 47.1529 17.9653V30.8985H40.6859H40.674ZM67.1602 9.15901C68.5867 9.15901 69.9063 9.3824 71.0951 9.81743C72.2839 10.2525 73.3062 10.8991 74.1621 11.7339C75.0181 12.5687 75.6838 13.6033 76.1593 14.8143C76.6348 16.0371 76.8726 17.4127 76.8726 18.9529C76.8726 19.435 76.8488 19.823 76.8131 20.1287C76.7656 20.4344 76.6943 20.6695 76.5873 20.8459C76.4803 21.0223 76.3257 21.1516 76.1474 21.2221C75.9572 21.2927 75.7195 21.3279 75.4222 21.3279H62.9519C63.1659 23.1268 63.7127 24.4201 64.6043 25.2314C65.4959 26.0309 66.6371 26.4424 68.0399 26.4424C68.7888 26.4424 69.4427 26.3484 69.9776 26.172C70.5245 25.9956 71.0119 25.7958 71.4279 25.5724C71.8559 25.349 72.2363 25.1491 72.5929 24.9727C72.9496 24.7964 73.3181 24.7023 73.7104 24.7023C74.2216 24.7023 74.6139 24.8904 74.8754 25.2784L76.7537 27.6182C76.088 28.3589 75.3747 28.9703 74.602 29.4288C73.8293 29.8991 73.0328 30.2636 72.2244 30.534C71.416 30.7927 70.5958 30.9808 69.7874 31.0866C68.979 31.1924 68.1944 31.2395 67.4574 31.2395C65.9476 31.2395 64.5211 30.9926 63.1896 30.4987C61.8582 30.0049 60.7051 29.2877 59.7065 28.3236C58.7079 27.3595 57.9233 26.1602 57.3527 24.7258C56.7702 23.2914 56.4849 21.6336 56.4849 19.7289C56.4849 18.2945 56.7345 16.9424 57.2338 15.6609C57.7331 14.3793 58.4345 13.2624 59.3617 12.2865C60.289 11.3224 61.4065 10.5581 62.7141 9.99379C64.0337 9.42943 65.5078 9.14725 67.1602 9.14725V9.15901ZM67.2909 13.568C66.0546 13.568 65.0917 13.909 64.3903 14.6027C63.7008 15.2964 63.2372 16.2958 63.0113 17.6126H71.0832C71.0832 17.107 71.0237 16.6132 70.893 16.1312C70.7622 15.6491 70.5482 15.2141 70.251 14.8378C69.9538 14.4616 69.5615 14.1559 69.0741 13.9208C68.5867 13.6856 67.9923 13.568 67.3028 13.568H67.2909ZM93.8247 14.1677C93.6582 14.4263 93.4799 14.6027 93.3016 14.7203C93.1114 14.8261 92.8736 14.8849 92.5765 14.8849C92.2674 14.8849 91.9702 14.8143 91.6611 14.685C91.352 14.5557 91.031 14.4146 90.6744 14.2617C90.3177 14.1089 89.9136 13.9678 89.4737 13.8385C89.0339 13.7091 88.5227 13.6503 87.9521 13.6503C87.1318 13.6503 86.5017 13.8032 86.0738 14.1206C85.6339 14.4263 85.4081 14.8614 85.4081 15.4022C85.4081 15.802 85.5507 16.1312 85.836 16.3898C86.1213 16.6602 86.5017 16.8836 86.9654 17.0835C87.4409 17.2834 87.9758 17.4715 88.5702 17.6596C89.1646 17.836 89.7828 18.0359 90.401 18.2593C91.031 18.4826 91.6373 18.7296 92.2317 19.0352C92.8261 19.3292 93.361 19.7054 93.8366 20.1404C94.3121 20.5755 94.6925 21.0928 94.9778 21.7159C95.2631 22.3391 95.4058 23.0798 95.4058 23.9499C95.4058 25.008 95.2156 25.9839 94.8233 26.8775C94.431 27.771 93.8603 28.547 93.0876 29.1937C92.3149 29.8403 91.3639 30.3459 90.2345 30.6986C89.1052 31.0513 87.7975 31.2395 86.3234 31.2395C85.5864 31.2395 84.8493 31.1689 84.1123 31.0278C83.3752 30.8867 82.662 30.6986 81.9725 30.4752C81.283 30.2401 80.641 29.9579 80.0585 29.6404C79.476 29.323 78.9767 28.9703 78.5607 28.6058L80.0585 26.2425C80.2368 25.9604 80.4508 25.7487 80.7005 25.5841C80.9501 25.4195 81.283 25.349 81.6753 25.349C82.0557 25.349 82.3885 25.4313 82.6857 25.5959C82.9829 25.7605 83.3039 25.9369 83.6487 26.1367C83.9934 26.3249 84.4095 26.513 84.8731 26.6776C85.3367 26.8422 85.9192 26.9245 86.6325 26.9245C87.1318 26.9245 87.5598 26.8657 87.9045 26.7716C88.2493 26.6658 88.5346 26.5365 88.7367 26.3484C88.9506 26.172 89.0933 25.9721 89.2003 25.7487C89.2954 25.5253 89.3429 25.302 89.3429 25.0668C89.3429 24.6435 89.2003 24.2908 88.9031 24.0204C88.6059 23.75 88.2255 23.5031 87.7619 23.3032C87.2863 23.1033 86.7514 22.9152 86.1451 22.7506C85.5388 22.5742 84.9207 22.3861 84.2906 22.1627C83.6605 21.9393 83.0543 21.6689 82.448 21.3632C81.8417 21.0575 81.3067 20.6578 80.8312 20.1875C80.3557 19.7172 79.9753 19.1411 79.69 18.4474C79.3928 17.7654 79.2502 16.9307 79.2502 15.9548C79.2502 15.0495 79.4285 14.1794 79.7851 13.3682C80.1417 12.5452 80.6648 11.8397 81.3781 11.2166C82.0913 10.5934 82.9829 10.0996 84.0528 9.73513C85.1227 9.37065 86.371 9.19428 87.8094 9.19428C88.594 9.19428 89.3429 9.26483 90.08 9.40592C90.8052 9.54701 91.4947 9.74688 92.1366 9.99379C92.7785 10.2407 93.361 10.5346 93.8841 10.8756C94.4072 11.2166 94.8827 11.581 95.2869 11.9926L93.8247 14.2265V14.1677ZM98.9602 30.8867V-0.0117798H105.427V11.3812C106.212 10.711 107.056 10.1819 107.959 9.7704C108.875 9.37065 109.957 9.15901 111.217 9.15901C112.394 9.15901 113.452 9.37065 114.355 9.7704C115.27 10.1819 116.031 10.7345 116.661 11.4635C117.291 12.1807 117.755 13.0507 118.076 14.0383C118.397 15.0377 118.551 16.1194 118.551 17.2952V30.8985H112.084V17.3069C112.084 16.2605 111.847 15.4492 111.359 14.8614C110.872 14.2735 110.159 13.9913 109.208 13.9913C108.494 13.9913 107.829 14.1677 107.21 14.5086C106.58 14.8496 105.986 15.3081 105.415 15.896V30.9102H98.9483L98.9602 30.8867Z" fill="url(#paint0_linear_3_36)"/>
<path d="M278.122 30.8985V0.493774H281.831V12.792C282.735 11.8397 283.733 11.0755 284.839 10.5111C285.933 9.93499 287.205 9.65281 288.631 9.65281C289.784 9.65281 290.807 9.84093 291.686 10.2289C292.566 10.6052 293.303 11.146 293.898 11.8397C294.492 12.5334 294.932 13.3682 295.241 14.344C295.55 15.3199 295.704 16.4016 295.704 17.5773V30.8985H291.995V17.5773C291.995 16.0018 291.639 14.7673 290.902 13.8972C290.177 13.0272 289.047 12.5804 287.549 12.5804C286.456 12.5804 285.433 12.8391 284.482 13.3682C283.531 13.8855 282.652 14.6027 281.843 15.4963V30.8985H278.134H278.122ZM316.829 30.8985H315.177C314.82 30.8985 314.523 30.8397 314.297 30.7339C314.071 30.6281 313.929 30.3812 313.857 30.0284L313.441 28.0885C312.882 28.5823 312.348 29.029 311.813 29.417C311.289 29.8168 310.731 30.146 310.148 30.4164C309.566 30.6868 308.948 30.8867 308.282 31.0278C307.616 31.1689 306.879 31.2394 306.083 31.2394C305.262 31.2394 304.501 31.1219 303.776 30.8985C303.063 30.6751 302.433 30.3224 301.91 29.8756C301.387 29.417 300.959 28.8409 300.65 28.1472C300.341 27.4536 300.174 26.6305 300.174 25.6664C300.174 24.8316 300.4 24.0321 300.864 23.2679C301.327 22.5037 302.064 21.8217 303.087 21.2221C304.109 20.6342 305.441 20.1404 307.093 19.7642C308.745 19.388 310.766 19.1881 313.168 19.1881V17.542C313.168 15.9078 312.823 14.6732 312.122 13.8385C311.42 13.0037 310.374 12.5804 308.995 12.5804C308.092 12.5804 307.331 12.6862 306.713 12.9214C306.094 13.1448 305.56 13.4034 305.108 13.6856C304.656 13.9678 304.264 14.2264 303.943 14.4498C303.622 14.6732 303.289 14.7908 302.968 14.7908C302.718 14.7908 302.504 14.732 302.314 14.6027C302.124 14.4734 301.969 14.3088 301.862 14.1206L301.197 12.9684C302.362 11.8514 303.622 11.0049 304.977 10.4523C306.32 9.89972 307.818 9.61754 309.459 9.61754C310.636 9.61754 311.694 9.80566 312.609 10.1937C313.524 10.5816 314.297 11.1107 314.927 11.8044C315.557 12.4863 316.021 13.3211 316.342 14.3088C316.663 15.2846 316.817 16.3545 316.817 17.5303V30.9102L316.829 30.8985ZM307.188 28.6293C307.842 28.6293 308.436 28.5705 308.983 28.4412C309.53 28.3118 310.041 28.1355 310.517 27.8886C310.992 27.6534 311.456 27.3713 311.896 27.0185C312.336 26.6776 312.764 26.3013 313.18 25.8663V21.5396C311.468 21.5396 310.017 21.6454 308.817 21.857C307.616 22.0687 306.653 22.3508 305.892 22.6918C305.143 23.0328 304.597 23.4443 304.264 23.9146C303.919 24.3849 303.753 24.9022 303.753 25.4901C303.753 26.0427 303.848 26.513 304.026 26.9127C304.204 27.3125 304.454 27.6417 304.751 27.9003C305.06 28.159 305.417 28.3354 305.833 28.4529C306.249 28.5705 306.701 28.6293 307.188 28.6293ZM328.86 31.2277C327.195 31.2277 325.912 30.7691 325.02 29.8403C324.128 28.9232 323.677 27.5946 323.677 25.8545V13.0625H321.133C320.907 13.0625 320.717 12.9919 320.574 12.8626C320.419 12.7333 320.348 12.5334 320.348 12.263V10.7933L323.807 10.3583L324.663 3.90343C324.687 3.69179 324.782 3.52719 324.937 3.39786C325.091 3.26853 325.282 3.20974 325.519 3.20974H327.398V10.4053H333.448V13.0742H327.398V25.6312C327.398 26.513 327.612 27.1596 328.039 27.5946C328.467 28.0179 329.026 28.2295 329.704 28.2295C330.096 28.2295 330.429 28.1708 330.714 28.0767C331 27.9709 331.237 27.8651 331.451 27.7357C331.665 27.6064 331.844 27.5006 331.986 27.3948C332.129 27.2889 332.26 27.2419 332.367 27.2419C332.557 27.2419 332.735 27.3595 332.89 27.5946L333.972 29.37C333.33 29.9579 332.557 30.4047 331.653 30.7456C330.75 31.0748 329.823 31.2394 328.86 31.2394V31.2277ZM342.15 9.98202V30.8985H338.441V9.98202H342.15ZM342.983 3.42137C342.983 3.7741 342.911 4.1033 342.769 4.42075C342.626 4.72645 342.424 5.00863 342.186 5.24377C341.948 5.47892 341.663 5.6788 341.342 5.81989C341.021 5.96098 340.676 6.03152 340.32 6.03152C339.963 6.03152 339.63 5.96098 339.309 5.81989C339 5.6788 338.715 5.49068 338.477 5.24377C338.239 5.00863 338.037 4.72645 337.895 4.42075C337.752 4.11506 337.681 3.78585 337.681 3.42137C337.681 3.06865 337.752 2.71593 337.895 2.39848C338.037 2.08103 338.227 1.79885 338.477 1.55194C338.715 1.31679 339 1.12868 339.309 0.987586C339.618 0.846497 339.951 0.775953 340.32 0.775953C340.676 0.775953 341.021 0.846497 341.342 0.987586C341.663 1.12868 341.948 1.30504 342.186 1.55194C342.424 1.78709 342.626 2.06927 342.769 2.39848C342.911 2.72769 342.983 3.06865 342.983 3.42137Z" fill="url(#paint1_linear_3_36)"/>
</g>
<defs>
<linearGradient id="paint0_linear_3_36" x1="121.202" y1="-25.2079" x2="150.723" y2="63.405" gradientUnits="userSpaceOnUse">
<stop stop-color="#B72024"/>
<stop offset="0.580392" stop-color="#D3521F"/>
<stop offset="1" stop-color="#F08519"/>
</linearGradient>
<linearGradient id="paint1_linear_3_36" x1="290.605" y1="-1.3639" x2="330.119" y2="33.5174" gradientUnits="userSpaceOnUse">
<stop stop-color="#F08519"/>
<stop offset="0.580392" stop-color="#F08519"/>
<stop offset="1" stop-color="#F08519"/>
</linearGradient>
<clipPath id="clip0_3_36">
<rect width="343" height="38" fill="white"/>
</clipPath>
</defs>
</svg>
