<svg xmlns="http://www.w3.org/2000/svg" viewBox="0 0 640 400">
  <rect width="640" height="400" fill="#211E1A"/>
  <rect x="0" y="0" width="640" height="4" fill="#D8704A"/>
  <!-- API route rows -->
  <rect x="120" y="90" width="400" height="32" rx="6" fill="#2D2720"/>
  <rect x="130" y="99" width="40" height="14" rx="3" fill="#4A8A5A" opacity="0.7"/>
  <rect x="182" y="104" width="160" height="7" rx="2" fill="#3D3228"/>
  <rect x="120" y="134" width="400" height="32" rx="6" fill="#2D2720"/>
  <rect x="130" y="143" width="46" height="14" rx="3" fill="#D8704A" opacity="0.6"/>
  <rect x="188" y="148" width="140" height="7" rx="2" fill="#3D3228"/>
  <rect x="120" y="178" width="400" height="32" rx="6" fill="#261E1A" stroke="#2D2720" stroke-width="1"/>
  <rect x="130" y="187" width="40" height="14" rx="3" fill="#4A8A5A" opacity="0.4"/>
  <rect x="182" y="192" width="120" height="7" rx="2" fill="#3D3228"/>
  <rect x="120" y="222" width="400" height="32" rx="6" fill="#2D2720"/>
  <rect x="130" y="231" width="46" height="14" rx="3" fill="#D8704A" opacity="0.4"/>
  <rect x="188" y="236" width="180" height="7" rx="2" fill="#3D3228"/>
  <text x="320" y="310" text-anchor="middle" font-family="'Segoe UI', sans-serif" font-size="13" fill="#6A5A50" letter-spacing="3">MEMBERSHIP API</text>
  <text x="320" y="328" text-anchor="middle" font-family="'Segoe UI', sans-serif" font-size="10" fill="#4A3A30" letter-spacing="2">RUST + ROCKET</text>
</svg>
