<svg xmlns="http://www.w3.org/2000/svg" viewBox="0 0 640 400">
  <rect width="640" height="400" fill="#211E1A"/>
  <rect x="0" y="0" width="640" height="4" fill="#D8704A"/>
  <!-- Receipt shape -->
  <rect x="220" y="80" width="200" height="230" rx="6" fill="#2D2720"/>
  <rect x="236" y="100" width="120" height="10" rx="3" fill="#D8704A" opacity="0.5"/>
  <rect x="236" y="118" width="80" height="6" rx="3" fill="#3D3228"/>
  <rect x="236" y="132" width="100" height="6" rx="3" fill="#3D3228"/>
  <line x1="236" y1="148" x2="404" y2="148" stroke="#3D3228" stroke-width="1" stroke-dasharray="4"/>
  <rect x="236" y="158" width="60" height="5" rx="2" fill="#4A3A30"/>
  <rect x="330" y="158" width="54" height="5" rx="2" fill="#4A3A30"/>
  <rect x="236" y="170" width="70" height="5" rx="2" fill="#4A3A30"/>
  <rect x="330" y="170" width="44" height="5" rx="2" fill="#4A3A30"/>
  <rect x="236" y="182" width="50" height="5" rx="2" fill="#4A3A30"/>
  <rect x="330" y="182" width="60" height="5" rx="2" fill="#4A3A30"/>
  <line x1="236" y1="196" x2="404" y2="196" stroke="#3D3228" stroke-width="1" stroke-dasharray="4"/>
  <rect x="290" y="206" width="94" height="8" rx="2" fill="#D8704A" opacity="0.6"/>
  <text x="320" y="344" text-anchor="middle" font-family="'Segoe UI', sans-serif" font-size="13" fill="#6A5A50" letter-spacing="3">UD84</text>
  <text x="320" y="363" text-anchor="middle" font-family="'Segoe UI', sans-serif" font-size="10" fill="#4A3A30" letter-spacing="2">POINT OF SALES</text>
</svg>
