<svg xmlns="http://www.w3.org/2000/svg" viewBox="0 0 640 400">
  <rect width="640" height="400" fill="#211E1A"/>
  <rect x="0" y="0" width="640" height="4" fill="#D8704A"/>
  <!-- People icons -->
  <circle cx="220" cy="160" r="32" fill="#2D2720" stroke="#D8704A" stroke-width="2"/>
  <circle cx="220" cy="151" r="9" fill="#D8704A"/>
  <ellipse cx="220" cy="178" rx="14" ry="8" fill="#D8704A"/>
  <circle cx="320" cy="160" r="32" fill="#2D2720" stroke="#3D3228" stroke-width="2"/>
  <circle cx="320" cy="151" r="9" fill="#6A5A50"/>
  <ellipse cx="320" cy="178" rx="14" ry="8" fill="#6A5A50"/>
  <circle cx="420" cy="160" r="32" fill="#2D2720" stroke="#3D3228" stroke-width="2"/>
  <circle cx="420" cy="151" r="9" fill="#6A5A50"/>
  <ellipse cx="420" cy="178" rx="14" ry="8" fill="#6A5A50"/>
  <!-- Label -->
  <text x="320" y="240" text-anchor="middle" font-family="'Segoe UI', sans-serif" font-size="13" fill="#6A5A50" letter-spacing="3">HRIS</text>
  <text x="320" y="262" text-anchor="middle" font-family="'Segoe UI', sans-serif" font-size="11" fill="#4A3A30" letter-spacing="2">PERSONAL ACCOUNT</text>
  <!-- Bars -->
  <rect x="200" y="290" width="60" height="6" rx="3" fill="#2D2720"/>
  <rect x="270" y="290" width="100" height="6" rx="3" fill="#D8704A" opacity="0.4"/>
  <rect x="200" y="304" width="80" height="6" rx="3" fill="#2D2720"/>
  <rect x="200" y="318" width="45" height="6" rx="3" fill="#D8704A" opacity="0.25"/>
</svg>
