<svg xmlns="http://www.w3.org/2000/svg" viewBox="0 0 640 400">
  <rect width="640" height="400" fill="#211E1A"/>
  <rect x="0" y="0" width="640" height="4" fill="#D8704A"/>
  <!-- Ledger / cooperative feel -->
  <rect x="160" y="90" width="320" height="210" rx="8" fill="#2D2720"/>
  <rect x="160" y="90" width="320" height="32" rx="8" fill="#D8704A" opacity="0.2"/>
  <rect x="160" y="106" width="320" height="16" rx="0" fill="#D8704A" opacity="0.2"/>
  <text x="200" y="112" font-family="sans-serif" font-size="9" fill="#D8704A" opacity="0.8">KOPERASI KOSADA</text>
  <!-- Rows -->
  <rect x="176" y="136" width="80" height="7" rx="3" fill="#3D3228"/>
  <rect x="350" y="136" width="60" height="7" rx="3" fill="#4A8A5A" opacity="0.6"/>
  <rect x="176" y="152" width="100" height="7" rx="3" fill="#3D3228"/>
  <rect x="350" y="152" width="50" height="7" rx="3" fill="#4A8A5A" opacity="0.6"/>
  <rect x="176" y="168" width="70" height="7" rx="3" fill="#3D3228"/>
  <rect x="350" y="168" width="70" height="7" rx="3" fill="#8A4A4A" opacity="0.6"/>
  <rect x="176" y="184" width="90" height="7" rx="3" fill="#3D3228"/>
  <rect x="350" y="184" width="55" height="7" rx="3" fill="#4A8A5A" opacity="0.6"/>
  <!-- WA notification -->
  <rect x="400" y="230" width="60" height="48" rx="8" fill="#1A2A1A" stroke="#2A4A2A" stroke-width="1"/>
  <rect x="412" y="243" width="36" height="5" rx="2" fill="#25D366" opacity="0.7"/>
  <rect x="412" y="254" width="26" height="5" rx="2" fill="#25D366" opacity="0.5"/>
  <rect x="412" y="265" width="18" height="5" rx="2" fill="#25D366" opacity="0.3"/>
  <text x="320" y="332" text-anchor="middle" font-family="'Segoe UI', sans-serif" font-size="13" fill="#6A5A50" letter-spacing="3">KOSADA</text>
  <text x="320" y="351" text-anchor="middle" font-family="'Segoe UI', sans-serif" font-size="10" fill="#4A3A30" letter-spacing="2">COOPERATIVE SYSTEM</text>
</svg>
