<svg xmlns="http://www.w3.org/2000/svg" viewBox="0 0 640 400">
  <rect width="640" height="400" fill="#211E1A"/>
  <rect x="0" y="0" width="640" height="4" fill="#D8704A"/>
  <!-- Website layout mockup -->
  <rect x="120" y="80" width="400" height="240" rx="8" fill="#2D2720"/>
  <!-- Nav -->
  <rect x="120" y="80" width="400" height="28" rx="8" fill="#261E1A"/>
  <rect x="120" y="94" width="400" height="14" rx="0" fill="#261E1A"/>
  <rect x="136" y="88" width="50" height="12" rx="3" fill="#D8704A" opacity="0.4"/>
  <rect x="340" y="88" width="30" height="12" rx="3" fill="#3D3228"/>
  <rect x="378" y="88" width="30" height="12" rx="3" fill="#3D3228"/>
  <rect x="416" y="88" width="30" height="12" rx="3" fill="#3D3228"/>
  <!-- Hero -->
  <rect x="136" y="120" width="200" height="12" rx="3" fill="#D8704A" opacity="0.5"/>
  <rect x="136" y="140" width="160" height="8" rx="3" fill="#3D3228"/>
  <rect x="136" y="156" width="180" height="8" rx="3" fill="#3D3228"/>
  <rect x="136" y="180" width="80" height="20" rx="4" fill="#D8704A" opacity="0.6"/>
  <!-- Hero image placeholder -->
  <rect x="360" y="116" width="140" height="100" rx="6" fill="#3D3228"/>
  <!-- Cards -->
  <rect x="136" y="240" width="110" height="60" rx="6" fill="#261E1A"/>
  <rect x="256" y="240" width="110" height="60" rx="6" fill="#261E1A"/>
  <rect x="376" y="240" width="110" height="60" rx="6" fill="#261E1A"/>
  <text x="320" y="356" text-anchor="middle" font-family="'Segoe UI', sans-serif" font-size="13" fill="#6A5A50" letter-spacing="3">IMABA</text>
  <text x="320" y="375" text-anchor="middle" font-family="'Segoe UI', sans-serif" font-size="10" fill="#4A3A30" letter-spacing="2">WEBSITE</text>
</svg>
