<svg xmlns="http://www.w3.org/2000/svg" viewBox="0 0 640 400">
  <rect width="640" height="400" fill="#211E1A"/>
  <rect x="0" y="0" width="640" height="4" fill="#D8704A"/>
  <!-- Chat interface -->
  <rect x="130" y="90" width="380" height="240" rx="10" fill="#1A1714" stroke="#2D2720" stroke-width="1"/>
  <!-- User message -->
  <rect x="230" y="112" width="240" height="36" rx="8" fill="#2D2720"/>
  <rect x="246" y="122" width="180" height="8" rx="3" fill="#3D3228"/>
  <rect x="246" y="136" width="130" height="8" rx="3" fill="#3D3228"/>
  <!-- AI response — streaming dots -->
  <rect x="150" y="160" width="280" height="60" rx="8" fill="#261E1A" stroke="#2D2720" stroke-width="1"/>
  <rect x="166" y="172" width="200" height="7" rx="3" fill="#D8704A" opacity="0.3"/>
  <rect x="166" y="186" width="240" height="7" rx="3" fill="#3D3228"/>
  <rect x="166" y="200" width="180" height="7" rx="3" fill="#3D3228"/>
  <!-- Typing cursor -->
  <rect x="410" y="200" width="2" height="7" rx="1" fill="#D8704A" opacity="0.8"/>
  <!-- Input bar -->
  <rect x="150" y="292" width="300" height="26" rx="6" fill="#2D2720"/>
  <rect x="462" y="292" width="36" height="26" rx="6" fill="#D8704A" opacity="0.7"/>
  <text x="320" y="358" text-anchor="middle" font-family="'Segoe UI', sans-serif" font-size="13" fill="#6A5A50" letter-spacing="3">AI DASHBOARD</text>
  <text x="320" y="376" text-anchor="middle" font-family="'Segoe UI', sans-serif" font-size="10" fill="#4A3A30" letter-spacing="2">MASTRA + OLLAMA</text>
</svg>
