<svg width="440" height="500" viewBox="0 0 440 500" fill="none" xmlns="http://www.w3.org/2000/svg">
<path d="M419.9 398.49H386.78V398.74H419.9V398.49Z" fill="#EBEBEB"/>
<path d="M301.22 401.21H292.53V401.46H301.22V401.21Z" fill="#EBEBEB"/>
<path d="M385.78 389.21H366.59V389.46H385.78V389.21Z" fill="#EBEBEB"/>
<path d="M65.65 390.89H22.46V391.14H65.65V390.89Z" fill="#EBEBEB"/>
<path d="M80.8901 390.89H74.5601V391.14H80.8901V390.89Z" fill="#EBEBEB"/>
<path d="M195.15 395.11H101.47V395.36H195.15V395.11Z" fill="#EBEBEB"/>
<path d="M208.4 337.8H15.3C13.7856 337.8 12.3332 337.198 11.2624 336.128C10.1916 335.057 9.58997 333.604 9.58997 332.09V60.66C9.60315 59.1543 10.2106 57.7147 11.28 56.6547C12.3494 55.5947 13.7942 54.9999 15.3 55H208.4C209.15 55 209.892 55.1477 210.585 55.4346C211.278 55.7216 211.907 56.1422 212.438 56.6724C212.968 57.2026 213.388 57.8321 213.675 58.5249C213.962 59.2176 214.11 59.9602 214.11 60.71V332.09C214.11 332.84 213.962 333.582 213.675 334.275C213.388 334.968 212.968 335.597 212.438 336.128C211.907 336.658 211.278 337.078 210.585 337.365C209.892 337.652 209.15 337.8 208.4 337.8ZM15.3 55.2C13.8527 55.2026 12.4655 55.7787 11.4421 56.8021C10.4187 57.8255 9.84261 59.2127 9.83997 60.66V332.09C9.84261 333.537 10.4187 334.924 11.4421 335.948C12.4655 336.971 13.8527 337.547 15.3 337.55H208.4C209.847 337.547 211.234 336.971 212.258 335.948C213.281 334.924 213.857 333.537 213.86 332.09V60.66C213.857 59.2127 213.281 57.8255 212.258 56.8021C211.234 55.7787 209.847 55.2026 208.4 55.2H15.3Z" fill="#EBEBEB"/>
<path d="M424.7 337.8H231.6C230.086 337.8 228.633 337.198 227.562 336.128C226.492 335.057 225.89 333.604 225.89 332.09V60.66C225.903 59.1543 226.511 57.7147 227.58 56.6547C228.649 55.5947 230.094 54.9999 231.6 55H424.7C426.214 55 427.667 55.6016 428.738 56.6724C429.808 57.7433 430.41 59.1956 430.41 60.71V332.09C430.41 333.604 429.808 335.057 428.738 336.128C427.667 337.198 426.214 337.8 424.7 337.8ZM231.6 55.2C230.153 55.2026 228.766 55.7787 227.742 56.8021C226.719 57.8255 226.143 59.2127 226.14 60.66V332.09C226.143 333.537 226.719 334.924 227.742 335.948C228.766 336.971 230.153 337.547 231.6 337.55H424.7C426.147 337.547 427.535 336.971 428.558 335.948C429.581 334.924 430.157 333.537 430.16 332.09V60.66C430.157 59.2127 429.581 57.8255 428.558 56.8021C427.535 55.7787 426.147 55.2026 424.7 55.2H231.6Z" fill="#EBEBEB"/>
<path d="M470 382.4H-30V382.65H470V382.4Z" fill="#EBEBEB"/>
<path d="M320.07 376.59H415.25V249.94H320.07V376.59Z" fill="#F5F5F5"/>
<path d="M301.91 376.59H320.07V249.94H301.91V376.59Z" fill="#E6E6E6"/>
<path d="M326.25 290.1H408.58V259.34H326.25V290.1Z" fill="#FAFAFA"/>
<path d="M378.15 259.34L377.79 263.44C377.735 264.093 377.435 264.702 376.952 265.145C376.468 265.588 375.836 265.832 375.18 265.83H359.65C358.994 265.832 358.362 265.588 357.878 265.145C357.394 264.702 357.095 264.093 357.04 263.44L356.68 259.34H378.15Z" fill="#EBEBEB"/>
<path d="M326.25 324.21H408.58V293.45H326.25V324.21Z" fill="#FAFAFA"/>
<path d="M378.15 293.46L377.79 297.56C377.732 298.213 377.433 298.82 376.949 299.262C376.466 299.705 375.835 299.95 375.18 299.95H359.65C358.995 299.95 358.364 299.705 357.88 299.262C357.397 298.82 357.097 298.213 357.04 297.56L356.68 293.46H378.15Z" fill="#EBEBEB"/>
<path d="M326.25 358.33H408.58V327.57H326.25V358.33Z" fill="#FAFAFA"/>
<path d="M378.15 327.57L377.79 331.67C377.735 332.323 377.435 332.932 376.952 333.375C376.468 333.818 375.836 334.062 375.18 334.06H359.65C358.994 334.062 358.362 333.818 357.878 333.375C357.394 332.932 357.095 332.323 357.04 331.67L356.68 327.57H378.15Z" fill="#EBEBEB"/>
<path d="M326.25 382.92H407.58L408.58 376.58H326.25V382.92Z" fill="#E6E6E6"/>
<path d="M309.25 382.92H326.25V376.58H308.25L309.25 382.92Z" fill="#E0E0E0"/>
<path d="M364.48 250.08H396.98L393.38 208.87H360.88L364.48 250.08Z" fill="#FAFAFA"/>
<path d="M364.48 250.08H362.93L359.32 208.87H360.88L364.48 250.08Z" fill="#EBEBEB"/>
<path d="M367.43 245.88H393.3L390.43 213.07H364.56L367.43 245.88Z" fill="#F0F0F0"/>
<path d="M369.32 243.18H390.93L388.54 215.77H366.92L369.32 243.18Z" fill="#E6E6E6"/>
<path d="M355.35 250.08L357.58 224.57H325.23L323 250.08H355.35Z" fill="#F0F0F0"/>
<path d="M355.35 250.08L357.58 224.57H359.32L357.09 250.08H355.35Z" fill="#E0E0E0"/>
<path d="M352.28 247.48L354.06 227.17H328.3L326.52 247.48H352.28Z" fill="#EBEBEB"/>
<path d="M350.31 245.81L351.79 228.85H330.27L328.79 245.81H350.31Z" fill="#F5F5F5"/>
<path d="M280.64 365.77C280.64 372.53 279.58 376.9 277.8 379.71C277.115 380.739 276.184 381.58 275.09 382.157C273.997 382.733 272.776 383.026 271.54 383.01H261.75C260.514 383.026 259.293 382.733 258.2 382.157C257.106 381.58 256.175 380.739 255.49 379.71C253.71 376.9 252.64 372.53 252.64 365.77C252.64 355.96 256.92 348.11 258.32 341.85C258.82 339.59 257.14 332.67 257.14 332.67H276.14C276.14 332.67 274.47 339.59 274.97 341.85C276.37 348.11 280.64 356 280.64 365.77Z" fill="#EBEBEB"/>
<path d="M313 326.09C313 317.57 299.65 321.09 296.29 307.9C295.01 302.9 305.87 291.57 305.87 291.57H272C272 291.57 282.86 302.9 281.58 307.9C278.22 321.11 264.87 317.57 264.87 326.09C264.87 335.46 283.7 354.99 284.61 376.97C284.69 378.97 281.07 382.97 281.07 382.97H296.79C296.79 382.97 293.16 378.89 293.25 376.97C294.17 355 313 335.46 313 326.09Z" fill="#F5F5F5"/>
<path d="M302.77 348.21C304.77 344.07 300.67 330.01 300.67 330.01H315.34C315.34 330.01 311.27 344.07 313.24 348.21C314.63 351.13 317.78 353 317.78 356.45V377.22C317.78 382.6 313.38 383.01 308 383.01C302.62 383.01 298.22 382.6 298.22 377.22V356.45C298.22 353 301.38 351.13 302.77 348.21Z" fill="#F0F0F0"/>
<path d="M135.15 225.53C126.73 221.88 121.92 214.18 124.44 208.36C126.96 202.54 135.86 200.78 144.29 204.43C152.72 208.08 157.52 215.78 155 221.6C152.48 227.42 143.58 229.18 135.15 225.53ZM141.86 210C137.86 208.29 133.74 209.11 132.56 211.84C131.38 214.57 133.63 218.17 137.56 219.84C141.49 221.51 145.68 220.73 146.86 218C148.04 215.27 145.81 211.75 141.86 210Z" fill="#E6E6E6"/>
<path d="M145.07 210.36L141.07 208.63L165.27 152.69C165.383 152.426 165.547 152.188 165.753 151.988C165.959 151.788 166.202 151.631 166.469 151.526C166.736 151.421 167.021 151.37 167.308 151.376C167.595 151.382 167.878 151.444 168.14 151.56C168.402 151.673 168.64 151.837 168.839 152.042C169.038 152.247 169.194 152.49 169.299 152.755C169.404 153.021 169.456 153.305 169.451 153.591C169.446 153.876 169.384 154.158 169.27 154.42L145.07 210.36Z" fill="#E6E6E6"/>
<path d="M171.12 159.83L163.43 156.47L165.17 152.47L172.85 155.83L171.12 159.83Z" fill="#E6E6E6"/>
<path d="M167.33 164.31L161.83 161.92L163.56 157.91L169.06 160.3L167.33 164.31Z" fill="#E6E6E6"/>
<path d="M161.319 165.552L159.586 169.553L165.753 172.223L167.486 168.222L161.319 165.552Z" fill="#E6E6E6"/>
<path d="M146.62 204.39L144.42 203.44C143.894 203.21 143.481 202.78 143.272 202.246C143.062 201.712 143.072 201.117 143.3 200.59C143.529 200.063 143.957 199.647 144.491 199.435C145.026 199.224 145.622 199.232 146.15 199.46L148.35 200.41C148.876 200.64 149.289 201.07 149.498 201.604C149.708 202.138 149.698 202.733 149.47 203.26C149.241 203.787 148.813 204.203 148.279 204.414C147.744 204.626 147.148 204.617 146.62 204.39Z" fill="#E6E6E6"/>
<path d="M318.47 185.16C320.978 186.744 322.958 189.039 324.155 191.754C325.353 194.468 325.714 197.478 325.192 200.398C324.671 203.318 323.291 206.017 321.228 208.149C319.165 210.282 316.514 211.751 313.612 212.368C310.71 212.986 307.691 212.725 304.938 211.618C302.186 210.512 299.826 208.609 298.16 206.155C296.493 203.7 295.597 200.805 295.585 197.838C295.572 194.871 296.444 191.968 298.09 189.5C300.22 186.225 303.562 183.929 307.383 183.116C311.203 182.302 315.191 183.037 318.47 185.16ZM306.32 203.39C307.459 204.191 308.81 204.635 310.202 204.664C311.595 204.693 312.964 204.307 314.135 203.554C315.306 202.801 316.226 201.715 316.777 200.437C317.328 199.158 317.486 197.744 317.229 196.376C316.973 195.007 316.314 193.746 315.337 192.754C314.36 191.762 313.109 191.084 311.745 190.806C310.38 190.529 308.964 190.664 307.677 191.196C306.39 191.727 305.291 192.63 304.52 193.79C303.487 195.302 303.096 197.162 303.433 198.962C303.771 200.762 304.809 202.355 306.32 203.39Z" fill="#E6E6E6"/>
<path d="M304.71 201.61L308.85 204.37L279.23 249.69C278.864 250.238 278.295 250.619 277.648 250.749C277.001 250.878 276.329 250.745 275.78 250.38C275.509 250.199 275.276 249.967 275.094 249.697C274.913 249.426 274.786 249.122 274.722 248.803C274.658 248.483 274.658 248.154 274.721 247.835C274.784 247.515 274.909 247.211 275.09 246.94L304.71 201.61Z" fill="#E6E6E6"/>
<path d="M275.28 237.05L284 242.9L279.65 249.43L270.92 243.57C270.32 243.165 269.904 242.54 269.763 241.829C269.623 241.119 269.769 240.382 270.17 239.78L271.48 237.78C271.889 237.182 272.518 236.77 273.23 236.633C273.941 236.497 274.678 236.646 275.28 237.05Z" fill="#E6E6E6"/>
<path d="M197.54 98.5601L192.94 110.46C192.841 110.716 192.694 110.949 192.505 111.147C192.316 111.346 192.09 111.505 191.84 111.616C191.59 111.727 191.32 111.787 191.046 111.794C190.773 111.801 190.5 111.754 190.245 111.655C189.99 111.557 189.756 111.409 189.558 111.22C189.359 111.031 189.2 110.805 189.089 110.555C188.978 110.305 188.918 110.035 188.911 109.762C188.904 109.488 188.951 109.216 189.05 108.96L193.65 97.0601C194.361 95.21 194.31 93.1534 193.508 91.3408C192.706 89.5283 191.218 88.1076 189.37 87.3901L185.11 85.7401C183.262 85.0277 181.208 85.076 179.396 85.8743C177.584 86.6726 176.161 88.156 175.44 90.0001L173.56 94.8601L169.68 93.3601L171.56 88.5001C172.11 87.074 172.936 85.7701 173.99 84.6631C175.044 83.556 176.306 82.6675 177.703 82.0481C179.101 81.4287 180.607 81.0907 182.135 81.0533C183.663 81.0159 185.184 81.2799 186.61 81.8301L190.87 83.4701C192.299 84.0223 193.606 84.8508 194.715 85.9082C195.823 86.9657 196.713 88.2313 197.333 89.6327C197.952 91.0342 198.289 92.5439 198.325 94.0758C198.36 95.6076 198.094 97.1314 197.54 98.5601Z" fill="#F0F0F0"/>
<path d="M196.81 100.43C196.493 100.022 196.071 99.708 195.59 99.52L172.39 90.52C171.685 90.2547 170.905 90.2769 170.216 90.5818C169.528 90.8867 168.987 91.4499 168.71 92.15L159.71 115.36C159.44 116.063 159.459 116.844 159.765 117.533C160.071 118.221 160.637 118.759 161.34 119.03L184.54 128.03C184.889 128.165 185.26 128.231 185.634 128.222C186.008 128.213 186.377 128.131 186.719 127.979C187.061 127.828 187.369 127.611 187.627 127.339C187.884 127.068 188.086 126.749 188.22 126.4L197.22 103.2C197.398 102.742 197.454 102.246 197.382 101.761C197.31 101.275 197.113 100.817 196.81 100.43ZM179.19 118.36L171.84 115.52L175.73 108.73C175.428 108.122 175.283 107.449 175.308 106.77C175.332 106.092 175.525 105.431 175.87 104.846C176.214 104.261 176.699 103.772 177.281 103.422C177.862 103.072 178.521 102.872 179.199 102.841C179.877 102.81 180.552 102.949 181.163 103.245C181.774 103.541 182.301 103.984 182.697 104.535C183.094 105.086 183.346 105.727 183.432 106.4C183.518 107.073 183.435 107.757 183.19 108.39C182.989 108.919 182.679 109.399 182.279 109.799C181.879 110.199 181.399 110.509 180.87 110.71L179.19 118.36Z" fill="#E6E6E6"/>
<path d="M39.15 369.46H224.28V269.83H39.15V369.46Z" fill="#E6E6E6"/>
<path d="M209.44 382.39H221.08V373.6H209.44V382.39Z" fill="#E6E6E6"/>
<path d="M25.02 382.39H36.66L36.66 262.42H25.02L25.02 382.39Z" fill="#E6E6E6"/>
<path d="M36.52 262.41V382.41H42.73V375.69H221.08V382.41H227.29V262.41H36.52ZM42.73 273.27H128.8V314.94H42.73V273.27ZM221.08 364.8H135V273.27H221.07L221.08 364.8ZM42.73 364.8V321.15H128.8V364.8H42.73Z" fill="#F0F0F0"/>
<path d="M135 364.81H215.26V277.76H135V364.81Z" fill="#F5F5F5"/>
<path d="M138.64 318.67C138.64 319.408 138.859 320.129 139.269 320.742C139.678 321.356 140.261 321.834 140.943 322.116C141.624 322.398 142.374 322.472 143.098 322.328C143.821 322.184 144.486 321.829 145.008 321.307C145.529 320.786 145.884 320.121 146.028 319.398C146.172 318.674 146.098 317.924 145.816 317.243C145.534 316.561 145.056 315.978 144.442 315.569C143.829 315.159 143.108 314.94 142.37 314.94C141.88 314.94 141.395 315.036 140.943 315.224C140.49 315.411 140.079 315.686 139.733 316.032C139.386 316.379 139.111 316.79 138.924 317.243C138.737 317.695 138.64 318.18 138.64 318.67Z" fill="#FAFAFA"/>
<path d="M142.37 322.4C143.083 322.398 143.78 322.191 144.379 321.805C144.978 321.418 145.454 320.869 145.75 320.22C145.978 320.705 146.098 321.234 146.1 321.77C146.1 322.759 145.707 323.708 145.008 324.408C144.308 325.107 143.359 325.5 142.37 325.5C141.381 325.5 140.432 325.107 139.733 324.408C139.033 323.708 138.64 322.759 138.64 321.77C138.642 321.234 138.762 320.705 138.99 320.22C139.286 320.869 139.762 321.418 140.361 321.805C140.96 322.191 141.657 322.398 142.37 322.4Z" fill="#E0E0E0"/>
<path d="M184.14 364.8H164.99L155.84 277.75H174.99L184.14 364.8Z" fill="#FAFAFA"/>
<path d="M160.09 364.8H156.28L147.13 277.75H150.94L160.09 364.8Z" fill="#FAFAFA"/>
<path d="M109.41 314.9H116.99V277.67H109.41V314.9Z" fill="#FAFAFA"/>
<path d="M77.96 314.9H85.54V277.67H77.96V314.9Z" fill="#F5F5F5"/>
<path d="M101.82 314.9H109.4V280.28H101.82V314.9Z" fill="#F5F5F5"/>
<path d="M85.54 314.9H93.12V280.28H85.54V314.9Z" fill="#FAFAFA"/>
<path d="M93.13 314.9H98.03V277.67H93.13V314.9Z" fill="#EBEBEB"/>
<path d="M98.0201 314.9H101.81V280.28H98.0201V314.9Z" fill="#FAFAFA"/>
<path d="M70.38 314.9H77.96V277.67H70.38V314.9Z" fill="#EBEBEB"/>
<path d="M62.79 314.9H70.37V280.28H62.79L62.79 314.9Z" fill="#E6E6E6"/>
<path d="M46.51 314.9H54.09L54.09 280.28H46.51L46.51 314.9Z" fill="#E6E6E6"/>
<path d="M54.1 314.9H59L59 277.67H54.1L54.1 314.9Z" fill="#FAFAFA"/>
<path d="M59 314.9H62.79L62.79 280.28H59L59 314.9Z" fill="#EBEBEB"/>
<path d="M42.72 314.9H46.51L46.51 278.55H42.72L42.72 314.9Z" fill="#EBEBEB"/>
<path d="M50.3 327.57H42.72V364.8H50.3V327.57Z" fill="#EBEBEB"/>
<path d="M81.74 327.57H74.16V364.8H81.74V327.57Z" fill="#FAFAFA"/>
<path d="M57.88 330.19H50.3V364.81H57.88V330.19Z" fill="#FAFAFA"/>
<path d="M74.16 330.19H66.58V364.81H74.16V330.19Z" fill="#EBEBEB"/>
<path d="M66.5801 327.57H61.6801V364.8H66.5801V327.57Z" fill="#FAFAFA"/>
<path d="M61.68 330.19H57.89V364.81H61.68V330.19Z" fill="#F5F5F5"/>
<path d="M89.33 327.57H81.75V364.8H89.33V327.57Z" fill="#EBEBEB"/>
<path d="M96.91 330.19H89.33V364.81H96.91V330.19Z" fill="#F5F5F5"/>
<path d="M113.19 330.19H105.61V364.81H113.19V330.19Z" fill="#E6E6E6"/>
<path d="M105.61 327.57H100.71V364.8H105.61V327.57Z" fill="#FAFAFA"/>
<path d="M121.89 327.57H116.99V364.8H121.89V327.57Z" fill="#FAFAFA"/>
<path d="M100.71 330.19H96.92V364.81H100.71V330.19Z" fill="#EBEBEB"/>
<path d="M116.98 328.45H113.19V364.8H116.98V328.45Z" fill="#EBEBEB"/>
<path d="M51.1801 198.29C50.3943 198.677 49.7453 199.294 49.3201 200.06C48.7401 201.24 50.5501 203.43 50.5501 203.43C50.9865 203.722 51.4851 203.907 52.0061 203.971C52.5271 204.036 53.0559 203.977 53.5501 203.8L55.0501 203.12C55.0501 203.12 52.4801 198.65 51.2301 198.6L51.1801 198.29Z" fill="#E6E6E6"/>
<path d="M57.63 198.25C57.81 200.37 56.5 203.05 54.63 203.25C52.76 203.45 51 201 50.78 198.85C50.56 196.7 52.12 196.52 54.01 196.36C55.9 196.2 57.44 196.13 57.63 198.25Z" fill="#E6E6E6"/>
<path d="M52.0801 197.63C52.0801 197.63 53.5301 198.78 56.5101 198.11C56.5101 198.11 51.8101 201.24 52.0801 197.63Z" fill="#E6E6E6"/>
<path d="M53.36 197.21C53.36 197.21 55.03 196.92 55.05 197.61C55.05 197.61 56.47 197.53 56.27 196.94C56.07 196.35 53.36 197.21 53.36 197.21Z" fill="#E6E6E6"/>
<g opacity="0.2">
<path d="M52.0801 197.63C52.0801 197.63 53.5301 198.78 56.5101 198.11C56.5101 198.11 51.8101 201.24 52.0801 197.63Z" fill="#FAFAFA"/>
</g>
<g opacity="0.2">
<path d="M53.36 197.21C53.36 197.21 55.03 196.92 55.05 197.61C55.05 197.61 56.47 197.53 56.27 196.94C56.07 196.35 53.36 197.21 53.36 197.21Z" fill="#FAFAFA"/>
</g>
<path d="M51.4301 203.88C51.7526 204.364 52.2056 204.746 52.7365 204.983C53.2673 205.221 53.8545 205.303 54.4301 205.22C54.9988 205.134 55.5435 204.931 56.0291 204.623C56.5147 204.315 56.9306 203.908 57.2501 203.43C57.8738 202.466 58.2198 201.348 58.2501 200.2C58.2501 199.91 58.2501 199.2 57.9001 199.05C57.5501 198.9 57.3201 199.45 57.1601 199.68C56.6932 200.351 56.1606 200.974 55.5701 201.54C54.9861 202.1 54.3383 202.591 53.6401 203C53.4401 203.06 51.5401 204.05 51.4301 203.88Z" fill="#E6E6E6"/>
<path d="M59.55 199.65C59.7228 200.084 59.7832 200.554 59.7255 201.017C59.6678 201.481 59.4939 201.922 59.22 202.3C58.8258 202.768 58.3476 203.158 57.81 203.45C57.44 203.67 56.97 203.88 56.61 203.65C56.25 203.42 56.26 202.83 56.35 202.38C56.49 201.69 56.64 201 56.82 200.31C56.9053 199.619 57.0941 198.945 57.38 198.31C57.69 197.87 58.12 198.13 58.59 198.46C59.0165 198.758 59.3494 199.17 59.55 199.65Z" fill="#E6E6E6"/>
<g opacity="0.2">
<path d="M51.91 202.71C51.5462 202.681 51.1973 202.552 50.9012 202.339C50.6051 202.126 50.3729 201.836 50.23 201.5C50.03 200.99 50.03 199.72 50.69 199.55C50.8891 200.672 51.3034 201.745 51.91 202.71Z" fill="#FAFAFA"/>
</g>
<g opacity="0.2">
<path d="M56.84 202.65C57.1857 202.549 57.5014 202.365 57.7594 202.114C58.0175 201.863 58.2099 201.553 58.32 201.21C58.43 200.83 58.32 198.89 57.71 199.7C57.52 199.97 57.56 200.82 57.46 201.17C57.3122 201.686 57.1041 202.182 56.84 202.65Z" fill="#FAFAFA"/>
</g>
<g opacity="0.2">
<path d="M54.2 203.85C54.4788 204.083 54.8282 204.214 55.1913 204.223C55.5544 204.233 55.9098 204.119 56.2 203.9C56.12 204.28 54.94 204.59 54.58 204.7C53.58 204.98 53.12 204.56 52.2 204.17C52.15 204.17 53.61 204.39 54.2 203.85Z" fill="#FAFAFA"/>
</g>
<path d="M52.55 242.8L52.64 213.95L54.12 205.18L54.68 205.27L53.21 214L53.1 243.35L52.55 242.8Z" fill="#E0E0E0"/>
<path d="M53.15 213.8L52.7 214.15C52.1915 213.439 51.7433 212.686 51.36 211.9C50.6101 210.347 49.6659 208.895 48.55 207.58L48.97 207.19C50.1192 208.542 51.0935 210.034 51.87 211.63C52.2367 212.387 52.6648 213.113 53.15 213.8Z" fill="#E0E0E0"/>
<path d="M53.5 209.93C54.2738 209.72 54.9474 209.242 55.4 208.58C55.8485 207.795 56.1341 206.928 56.24 206.03C55.24 206.33 54.17 205.85 53.14 205.97C52.7287 206.021 52.3345 206.165 51.9878 206.392C51.641 206.62 51.351 206.923 51.14 207.28C50.6 208.21 50.38 209.28 50.86 209.69C51.6754 210.11 52.6223 210.196 53.5 209.93Z" fill="#E6E6E6"/>
<path d="M49.66 207.94C49.1962 208.229 48.6751 208.413 48.1329 208.48C47.5908 208.548 47.0404 208.496 46.52 208.33C45.52 208 45.19 206.44 44.78 205.43C46.0672 205.31 47.3628 205.31 48.65 205.43C48.922 205.447 49.1868 205.523 49.4255 205.655C49.6641 205.786 49.8706 205.969 50.03 206.19C50.1799 206.417 50.2413 206.691 50.2026 206.96C50.1639 207.229 50.0278 207.475 49.82 207.65L49.66 207.94Z" fill="#E6E6E6"/>
<path d="M44.93 209.63C45.3428 209.219 45.8404 208.903 46.3879 208.705C46.9355 208.506 47.5198 208.429 48.1 208.48C48.5645 208.566 49.0023 208.76 49.3776 209.046C49.7529 209.333 50.0553 209.704 50.26 210.13C50.1043 210.426 49.8718 210.676 49.5868 210.852C49.3018 211.028 48.9748 211.124 48.64 211.13C47.9581 211.14 47.2802 211.025 46.64 210.79C46.0012 210.549 45.3227 210.43 44.64 210.44L44.93 209.63Z" fill="#E6E6E6"/>
<path d="M64.18 204.67C64.8136 205.269 65.2496 206.047 65.43 206.9C65.64 208.21 63.27 209.76 63.27 209.76C62.7637 209.916 62.2277 209.949 61.7061 209.857C61.1844 209.765 60.6922 209.55 60.27 209.23L59 208.13C59 208.13 62.78 204.62 64 204.95L64.18 204.67Z" fill="#E6E6E6"/>
<path d="M58 202.74C57.21 204.74 57.68 207.65 59.44 208.36C61.2 209.07 63.58 207.29 64.38 205.36C65.18 203.43 63.8 202.7 62 202C60.2 201.3 58.82 200.77 58 202.74Z" fill="#E6E6E6"/>
<path d="M63.51 203.77C63.51 203.77 61.78 204.45 59.13 202.93C59.13 202.93 62.7 207.3 63.51 203.77Z" fill="#E6E6E6"/>
<path d="M62.4101 203C62.4101 203 60.9001 202.23 60.6701 202.89C60.6701 202.89 59.3401 202.4 59.6701 201.89C60.0001 201.38 62.4101 203 62.4101 203Z" fill="#E6E6E6"/>
<g opacity="0.2">
<path d="M63.51 203.77C63.51 203.77 61.78 204.45 59.13 202.93C59.13 202.93 62.7 207.3 63.51 203.77Z" fill="#FAFAFA"/>
</g>
<g opacity="0.2">
<path d="M62.4101 203C62.4101 203 60.9001 202.23 60.6701 202.89C60.6701 202.89 59.3401 202.4 59.6701 201.89C60.0001 201.38 62.4101 203 62.4101 203Z" fill="#FAFAFA"/>
</g>
<path d="M62.29 209.94C61.8416 210.299 61.3027 210.528 60.7327 210.6C60.1628 210.672 59.584 210.586 59.06 210.35C58.5421 210.1 58.0817 209.745 57.7082 209.308C57.3346 208.871 57.056 208.361 56.89 207.81C56.58 206.698 56.58 205.522 56.89 204.41C56.95 204.12 57.15 203.41 57.56 203.41C57.97 203.41 57.99 203.96 58.08 204.23C58.3302 205.014 58.6655 205.769 59.08 206.48C59.4805 207.174 59.9604 207.818 60.51 208.4C60.61 208.57 62.14 210.07 62.29 209.94Z" fill="#E6E6E6"/>
<path d="M55.78 203.51C55.4837 203.87 55.2856 204.3 55.205 204.759C55.1244 205.219 55.164 205.691 55.32 206.13C55.5474 206.699 55.8875 207.216 56.32 207.65C56.6 207.97 56.99 208.31 57.4 208.19C57.81 208.07 57.97 207.51 58.02 207.06C58.09 206.35 58.15 205.65 58.18 204.94C58.2847 204.261 58.2847 203.569 58.18 202.89C58.02 202.37 57.52 202.49 56.98 202.67C56.5086 202.831 56.0924 203.122 55.78 203.51Z" fill="#E6E6E6"/>
<g opacity="0.2">
<path d="M62.1801 208.67C62.5415 208.765 62.923 208.754 63.278 208.637C63.6331 208.519 63.9464 208.302 64.1801 208.01C64.5101 207.59 64.8801 206.37 64.3101 206.01C63.7759 207.024 63.053 207.927 62.1801 208.67Z" fill="#FAFAFA"/>
</g>
<g opacity="0.2">
<path d="M57.48 207.17C57.1759 206.975 56.9251 206.708 56.7505 206.392C56.5759 206.076 56.4829 205.721 56.48 205.36C56.48 204.96 57.19 203.15 57.48 204.1C57.58 204.41 57.29 205.21 57.29 205.57C57.2926 206.109 57.3563 206.645 57.48 207.17Z" fill="#FAFAFA"/>
</g>
<g opacity="0.2">
<path d="M59.65 209.09C59.3247 209.222 58.9648 209.242 58.6265 209.148C58.2882 209.054 57.9906 208.851 57.78 208.57C57.78 208.95 58.78 209.57 59.09 209.81C59.92 210.36 60.52 210.1 61.52 210C61.52 210 60.06 209.79 59.65 209.09Z" fill="#FAFAFA"/>
</g>
<path d="M51.73 238.49L52.09 237.31L52.57 235.72L53.13 233.86L57.62 219.09L58.18 214.85L58.68 211.09L58.78 210.31L59.06 210.34V210.35L59.35 210.38L59.34 210.45L59.24 211.19L58.71 215.21L58.28 218.49L58.18 219.21L58.14 219.32L53.13 235.82L52.56 237.67L52.31 238.53L51.95 239.7L51.73 238.49Z" fill="#E0E0E0"/>
<path d="M57.73 218.92L58.06 219.38C58.7529 218.847 59.4017 218.258 60 217.62C61.1852 216.352 62.5297 215.243 64 214.32L63.71 213.83C62.2113 214.778 60.8431 215.918 59.64 217.22C59.0452 217.832 58.4068 218.4 57.73 218.92Z" fill="#E0E0E0"/>
<path d="M58.54 215.12C57.8586 214.695 57.3541 214.038 57.12 213.27C56.9183 212.386 56.9013 211.471 57.07 210.58C57.93 211.16 59.07 211.01 60.07 211.43C60.4485 211.6 60.7831 211.854 61.0483 212.173C61.3134 212.492 61.5022 212.867 61.6 213.27C61.84 214.27 61.7401 215.39 61.1601 215.66C60.2497 215.833 59.3079 215.639 58.54 215.12Z" fill="#E6E6E6"/>
<path d="M62.7899 214.34C63.1469 214.753 63.5894 215.083 64.0868 215.307C64.5841 215.532 65.1243 215.645 65.6699 215.64C66.7599 215.64 67.5099 214.22 68.1899 213.37C66.9988 212.874 65.7632 212.492 64.4999 212.23C64.2356 212.165 63.9602 212.161 63.6938 212.216C63.4274 212.271 63.1767 212.385 62.9599 212.55C62.7474 212.721 62.6055 212.965 62.5612 213.234C62.5169 213.503 62.5735 213.78 62.7199 214.01L62.7899 214.34Z" fill="#E6E6E6"/>
<path d="M66.8199 217.34C66.5457 216.828 66.1613 216.383 65.6945 216.037C65.2276 215.691 64.6899 215.453 64.1199 215.34C63.6509 215.285 63.1755 215.341 62.7324 215.505C62.2893 215.668 61.891 215.933 61.5699 216.28C61.6293 216.611 61.7767 216.921 61.9966 217.176C62.2165 217.431 62.5008 217.622 62.8199 217.73C63.4658 217.934 64.1436 218.019 64.8199 217.98C65.4964 217.936 66.1751 218.021 66.8199 218.23V217.34Z" fill="#E6E6E6"/>
<path d="M43.9199 203.51C43.2214 204.036 42.6985 204.761 42.4199 205.59C42.0599 206.86 44.2299 208.68 44.2299 208.68C44.7083 208.889 45.2291 208.982 45.7502 208.952C46.2713 208.923 46.7782 208.771 47.2299 208.51L48.5899 207.56C48.5899 207.56 45.2599 203.63 44.0199 203.81L43.9199 203.51Z" fill="#E6E6E6"/>
<path d="M50.26 202.32C50.82 204.37 50.01 207.24 48.18 207.74C46.35 208.24 44.18 206.19 43.63 204.14C43.08 202.09 44.53 201.61 46.36 201.14C48.19 200.67 49.7 200.27 50.26 202.32Z" fill="#E6E6E6"/>
<path d="M44.6899 202.7C44.6899 202.7 46.3199 203.58 49.1299 202.38C49.1299 202.38 45.0799 206.31 44.6899 202.7Z" fill="#E6E6E6"/>
<path d="M45.87 202.06C45.87 202.06 47.46 201.47 47.61 202.15C47.61 202.15 48.99 201.82 48.69 201.27C48.39 200.72 45.87 202.06 45.87 202.06Z" fill="#E6E6E6"/>
<g opacity="0.2">
<path d="M44.6899 202.7C44.6899 202.7 46.3199 203.58 49.1299 202.38C49.1299 202.38 45.0799 206.31 44.6899 202.7Z" fill="#FAFAFA"/>
</g>
<g opacity="0.2">
<path d="M45.87 202.06C45.87 202.06 47.46 201.47 47.61 202.15C47.61 202.15 48.99 201.82 48.69 201.27C48.39 200.72 45.87 202.06 45.87 202.06Z" fill="#FAFAFA"/>
</g>
<path d="M45.17 209C45.5729 209.41 46.0812 209.701 46.6388 209.84C47.1964 209.98 47.7817 209.962 48.33 209.79C48.8747 209.602 49.3744 209.303 49.7978 208.913C50.2212 208.522 50.5591 208.048 50.79 207.52C51.2452 206.459 51.3975 205.293 51.23 204.15C51.23 203.86 51.09 203.15 50.68 203.08C50.27 203.01 50.18 203.58 50.06 203.84C49.7245 204.584 49.3123 205.291 48.83 205.95C48.3513 206.594 47.7974 207.178 47.18 207.69C47 207.8 45.31 209.12 45.17 209Z" fill="#E6E6E6"/>
<path d="M52.4001 203.35C52.6493 203.744 52.7939 204.195 52.8201 204.661C52.8464 205.126 52.7534 205.591 52.5501 206.01C52.2527 206.547 51.8516 207.02 51.3701 207.4C51.0501 207.68 50.6201 207.97 50.2301 207.81C49.8401 207.65 49.7401 207.07 49.7501 206.61C49.7501 205.9 49.7501 205.2 49.8301 204.49C49.7983 203.817 49.8657 203.143 50.0301 202.49C50.2501 201.99 50.7301 202.17 51.2501 202.41C51.7129 202.611 52.111 202.937 52.4001 203.35Z" fill="#E6E6E6"/>
<g opacity="0.2">
<path d="M45.44 207.73C45.0744 207.777 44.703 207.718 44.3699 207.56C44.0367 207.402 43.7557 207.152 43.56 206.84C43.28 206.38 43.05 205.12 43.66 204.84C44.0662 205.907 44.6701 206.887 45.44 207.73Z" fill="#FAFAFA"/>
</g>
<g opacity="0.2">
<path d="M50.28 206.79C50.6016 206.627 50.8784 206.388 51.0859 206.093C51.2934 205.799 51.4253 205.458 51.47 205.1C51.47 204.71 51.02 202.83 50.6 203.73C50.5504 204.222 50.5504 204.718 50.6 205.21C50.554 205.747 50.4466 206.277 50.28 206.79Z" fill="#FAFAFA"/>
</g>
<g opacity="0.2">
<path d="M47.9001 208.44C48.2087 208.608 48.5638 208.669 48.9108 208.615C49.2578 208.561 49.5773 208.394 49.8201 208.14C49.8201 208.52 48.7101 209.04 48.3701 209.22C47.4801 209.66 46.9101 209.34 45.9301 209.13C45.9301 209.13 47.4101 209.08 47.9001 208.44Z" fill="#FAFAFA"/>
</g>
<path d="M53.27 247.06L48.17 218.66L48.05 209.76L48.62 209.75L48.74 218.61L53.91 247.5L53.27 247.06Z" fill="#E0E0E0"/>
<path d="M48.65 218.42L48.26 218.84C47.6351 218.222 47.0631 217.553 46.55 216.84C45.5294 215.454 44.3365 214.204 43 213.12L43.35 212.67C44.7245 213.794 45.951 215.087 47 216.52C47.4973 217.197 48.0491 217.833 48.65 218.42Z" fill="#E0E0E0"/>
<path d="M48.2901 214.55C49.0176 214.209 49.5967 213.616 49.9201 212.88C50.2249 212.028 50.3509 211.123 50.2901 210.22C49.3601 210.7 48.2201 210.41 47.2301 210.71C46.8336 210.838 46.4711 211.053 46.1698 211.341C45.8684 211.628 45.636 211.98 45.4901 212.37C45.1301 213.37 45.1001 214.45 45.6501 214.78C46.5258 215.056 47.4751 214.973 48.2901 214.55Z" fill="#E6E6E6"/>
<path d="M44.1601 213.28C43.7594 213.647 43.2834 213.923 42.7651 214.087C42.2469 214.251 41.6991 214.3 41.1601 214.23C40.0801 214.09 39.5001 212.61 38.9301 211.69C40.1704 211.331 41.4433 211.097 42.7301 210.99C42.9992 210.956 43.2725 210.982 43.5302 211.067C43.7879 211.152 44.0235 211.293 44.2201 211.48C44.4085 211.677 44.5186 211.936 44.5296 212.209C44.5407 212.481 44.4519 212.748 44.2801 212.96L44.1601 213.28Z" fill="#E6E6E6"/>
<path d="M39.81 215.79C40.1431 215.314 40.5761 214.916 41.0786 214.624C41.5812 214.332 42.1413 214.153 42.72 214.1C43.1933 214.099 43.6603 214.21 44.0826 214.423C44.5049 214.637 44.8707 214.948 45.15 215.33C45.0538 215.654 44.8706 215.946 44.6203 216.174C44.3699 216.401 44.062 216.555 43.73 216.62C43.0692 216.745 42.3908 216.745 41.73 216.62C41.0692 216.495 40.3908 216.495 39.73 216.62L39.81 215.79Z" fill="#E6E6E6"/>
<path d="M55.35 229.63H49.35C49.1282 229.62 48.9095 229.685 48.7284 229.814C48.5474 229.942 48.4142 230.127 48.35 230.34C47.2453 234.262 46.7297 238.326 46.82 242.4C46.82 249.4 48.66 258.82 49.24 261.59C49.2847 261.821 49.4095 262.029 49.5924 262.177C49.7754 262.325 50.0047 262.404 50.24 262.4H54.4C54.6354 262.404 54.8647 262.325 55.0477 262.177C55.2306 262.029 55.3554 261.821 55.4 261.59C55.98 258.82 57.82 249.45 57.82 242.4C57.9104 238.326 57.3947 234.262 56.29 230.34C56.2287 230.137 56.1046 229.959 55.9357 229.832C55.7668 229.704 55.5617 229.633 55.35 229.63Z" fill="#F0F0F0"/>
<path d="M220 427.01C327.082 427.01 413.89 421.942 413.89 415.69C413.89 409.438 327.082 404.37 220 404.37C112.917 404.37 26.11 409.438 26.11 415.69C26.11 421.942 112.917 427.01 220 427.01Z" fill="#F5F5F5"/>
<path d="M90.7799 376.77C90.6164 376.76 90.4632 376.686 90.3531 376.565C90.2429 376.443 90.1844 376.284 90.1899 376.12C90.9299 346.73 92.4399 298.52 92.5199 298.25C92.5729 298.09 92.6854 297.956 92.8342 297.876C92.983 297.796 93.1569 297.776 93.3199 297.82C93.4819 297.871 93.6175 297.983 93.6978 298.132C93.7782 298.282 93.7969 298.457 93.7499 298.62C93.7499 298.68 92.1999 347.06 91.4599 376.15C91.4586 376.234 91.4407 376.316 91.4072 376.393C91.3737 376.469 91.3253 376.538 91.2648 376.596C91.2043 376.654 91.133 376.699 91.0549 376.729C90.9768 376.759 90.8935 376.773 90.8099 376.77H90.7799Z" fill="#263238"/>
<path d="M86.8299 278.63C87.0799 280.89 89.8299 288.74 92.0499 288.5C94.2699 288.26 95.2799 280 95.0499 277.74C94.9319 276.653 94.3867 275.657 93.5344 274.971C92.682 274.286 91.5923 273.967 90.5049 274.085C89.4175 274.203 88.4215 274.748 87.7361 275.601C87.0507 276.453 86.7319 277.543 86.8499 278.63H86.8299Z" fill="url(#paint0_linear_601_2175)"/>
<path d="M97.8199 303.39C97.5699 301.12 94.8199 293.27 92.5999 293.52C90.3799 293.77 89.3799 302.01 89.5999 304.28C89.718 305.367 90.2631 306.363 91.1155 307.049C91.9678 307.734 93.0576 308.053 94.1449 307.935C95.2323 307.817 96.2283 307.272 96.9137 306.419C97.5992 305.567 97.918 304.477 97.7999 303.39H97.8199Z" fill="url(#paint1_linear_601_2175)"/>
<path d="M80 296.5C82.26 296.26 90.11 293.55 89.86 291.28C89.61 289.01 81.37 288.06 79.11 288.28C78.5716 288.338 78.0499 288.502 77.5749 288.762C77.0998 289.022 76.6806 289.373 76.3412 289.795C76.0018 290.218 75.7488 290.702 75.5968 291.222C75.4447 291.742 75.3965 292.287 75.455 292.825C75.5134 293.363 75.6773 293.885 75.9374 294.36C76.1974 294.835 76.5485 295.254 76.9705 295.594C77.3926 295.933 77.8773 296.186 78.3971 296.338C78.9169 296.49 79.4616 296.538 80 296.48V296.5Z" fill="url(#paint2_linear_601_2175)"/>
<path d="M104.7 285.52C102.44 285.76 94.5899 288.52 94.8399 290.74C95.0899 292.96 103.33 293.96 105.59 293.74C106.136 293.692 106.667 293.536 107.152 293.28C107.637 293.024 108.066 292.674 108.414 292.25C108.762 291.827 109.022 291.338 109.179 290.812C109.335 290.287 109.385 289.736 109.326 289.191C109.267 288.645 109.099 288.118 108.834 287.638C108.568 287.159 108.209 286.737 107.778 286.398C107.347 286.059 106.853 285.809 106.325 285.664C105.796 285.518 105.244 285.479 104.7 285.55V285.52Z" fill="url(#paint3_linear_601_2175)"/>
<path d="M79.69 286.14C81.46 287.57 88.93 291.2 90.36 289.43C91.79 287.66 86.63 281.14 84.86 279.71C84.4416 279.34 83.9523 279.058 83.4218 278.882C82.8914 278.706 82.3307 278.64 81.7738 278.687C81.217 278.734 80.6754 278.894 80.1821 279.156C79.6887 279.419 79.2538 279.779 78.9036 280.214C78.5534 280.65 78.2952 281.152 78.1447 281.69C77.9942 282.229 77.9546 282.792 78.0281 283.346C78.1016 283.9 78.2868 284.433 78.5725 284.913C78.8581 285.394 79.2383 285.811 79.69 286.14Z" fill="url(#paint4_linear_601_2175)"/>
<path d="M105 295.88C103.23 294.45 95.7599 290.82 94.3399 292.59C92.9199 294.36 98.0599 300.88 99.8399 302.3C100.259 302.657 100.746 302.927 101.272 303.093C101.797 303.259 102.35 303.317 102.899 303.266C103.447 303.214 103.98 303.053 104.465 302.791C104.95 302.53 105.378 302.174 105.723 301.745C106.068 301.315 106.324 300.821 106.475 300.291C106.625 299.761 106.668 299.206 106.601 298.66C106.533 298.113 106.357 297.585 106.082 297.108C105.807 296.63 105.439 296.213 105 295.88Z" fill="url(#paint5_linear_601_2175)"/>
<path d="M87.4599 303.64C88.8899 301.87 92.5199 294.4 90.7399 292.98C88.9599 291.56 82.4599 296.7 81.0299 298.48C80.3456 299.333 80.0281 300.423 80.1472 301.509C80.2663 302.596 80.8122 303.591 81.6649 304.275C82.5176 304.96 83.6071 305.277 84.6939 305.158C85.7807 305.039 86.7756 304.493 87.4599 303.64Z" fill="url(#paint6_linear_601_2175)"/>
<path d="M97.1899 278.37C95.7699 280.15 92.13 287.61 93.91 289.04C95.69 290.47 102.19 285.31 103.62 283.54C103.99 283.122 104.272 282.633 104.448 282.102C104.624 281.572 104.69 281.011 104.643 280.454C104.596 279.897 104.436 279.356 104.174 278.862C103.911 278.369 103.551 277.934 103.116 277.584C102.68 277.234 102.178 276.975 101.64 276.825C101.102 276.674 100.538 276.635 99.9845 276.708C99.4304 276.782 98.8971 276.967 98.4168 277.253C97.9364 277.538 97.5191 277.919 97.1899 278.37Z" fill="url(#paint7_linear_601_2175)"/>
<g opacity="0.6">
<path d="M86.83 278.63C87.08 280.89 89.83 288.74 92.05 288.5C94.27 288.26 95.28 280 95.05 277.74C94.932 276.653 94.3869 275.657 93.5345 274.971C92.6821 274.286 91.5924 273.967 90.505 274.085C89.4176 274.203 88.4217 274.748 87.7362 275.601C87.0508 276.453 86.732 277.543 86.85 278.63H86.83Z" fill="white"/>
<path d="M97.8199 303.39C97.5699 301.12 94.8199 293.27 92.5999 293.52C90.3799 293.77 89.3799 302.01 89.5999 304.28C89.718 305.367 90.2631 306.363 91.1155 307.049C91.9678 307.734 93.0576 308.053 94.1449 307.935C95.2323 307.817 96.2283 307.272 96.9137 306.419C97.5992 305.567 97.918 304.477 97.7999 303.39H97.8199Z" fill="white"/>
<path d="M80 296.5C82.26 296.26 90.11 293.55 89.86 291.28C89.61 289.01 81.37 288.06 79.11 288.28C78.5716 288.338 78.0499 288.502 77.5749 288.762C77.0998 289.022 76.6806 289.373 76.3412 289.795C76.0018 290.218 75.7488 290.702 75.5968 291.222C75.4447 291.742 75.3965 292.287 75.455 292.825C75.5134 293.363 75.6773 293.885 75.9374 294.36C76.1974 294.835 76.5485 295.254 76.9705 295.594C77.3926 295.933 77.8773 296.186 78.3971 296.338C78.9169 296.49 79.4616 296.538 80 296.48V296.5Z" fill="white"/>
<path d="M104.7 285.52C102.44 285.76 94.5899 288.52 94.8399 290.74C95.0899 292.96 103.33 293.96 105.59 293.74C106.136 293.692 106.667 293.536 107.152 293.28C107.637 293.024 108.066 292.674 108.414 292.25C108.762 291.827 109.022 291.338 109.179 290.812C109.335 290.287 109.385 289.736 109.326 289.191C109.267 288.645 109.099 288.118 108.834 287.638C108.568 287.159 108.209 286.737 107.778 286.398C107.347 286.059 106.853 285.809 106.325 285.664C105.796 285.518 105.244 285.479 104.7 285.55V285.52Z" fill="white"/>
<path d="M79.69 286.14C81.46 287.57 88.93 291.2 90.36 289.43C91.79 287.66 86.63 281.14 84.86 279.71C84.4416 279.34 83.9523 279.058 83.4218 278.882C82.8914 278.706 82.3307 278.64 81.7738 278.687C81.217 278.734 80.6754 278.894 80.1821 279.156C79.6887 279.419 79.2538 279.779 78.9036 280.214C78.5534 280.65 78.2952 281.152 78.1447 281.69C77.9942 282.229 77.9546 282.792 78.0281 283.346C78.1016 283.9 78.2868 284.433 78.5725 284.913C78.8581 285.394 79.2383 285.811 79.69 286.14Z" fill="white"/>
<path d="M105 295.88C103.23 294.45 95.7599 290.82 94.3399 292.59C92.9199 294.36 98.0599 300.88 99.8399 302.3C100.259 302.657 100.746 302.927 101.272 303.093C101.797 303.259 102.35 303.317 102.899 303.266C103.447 303.214 103.98 303.053 104.465 302.791C104.95 302.53 105.378 302.174 105.723 301.745C106.068 301.315 106.324 300.821 106.475 300.291C106.625 299.761 106.668 299.206 106.601 298.66C106.533 298.113 106.357 297.585 106.082 297.108C105.807 296.63 105.439 296.213 105 295.88Z" fill="white"/>
<path d="M87.46 303.64C88.89 301.87 92.52 294.4 90.74 292.98C88.96 291.56 82.46 296.7 81.03 298.48C80.3458 299.333 80.0283 300.423 80.1473 301.509C80.2664 302.596 80.8124 303.591 81.665 304.275C82.5177 304.96 83.6073 305.277 84.694 305.158C85.7808 305.039 86.7758 304.493 87.46 303.64Z" fill="white"/>
<path d="M97.1899 278.37C95.7699 280.15 92.13 287.61 93.91 289.04C95.69 290.47 102.19 285.31 103.62 283.54C103.99 283.122 104.272 282.633 104.448 282.102C104.624 281.572 104.69 281.011 104.643 280.454C104.596 279.897 104.436 279.356 104.174 278.862C103.911 278.369 103.551 277.934 103.116 277.584C102.68 277.234 102.178 276.975 101.64 276.825C101.102 276.674 100.538 276.635 99.9845 276.708C99.4304 276.782 98.8971 276.967 98.4168 277.253C97.9364 277.538 97.5191 277.919 97.1899 278.37Z" fill="white"/>
</g>
<path d="M87.4699 291.54C87.5762 292.498 87.9641 293.404 88.5847 294.142C89.2053 294.88 90.0307 295.418 90.9567 295.688C91.8827 295.957 92.8678 295.946 93.7876 295.656C94.7074 295.366 95.5206 294.81 96.1246 294.058C96.7286 293.306 97.0963 292.393 97.1812 291.432C97.2662 290.471 97.0645 289.507 96.6018 288.661C96.1391 287.815 95.436 287.124 94.5814 286.678C93.7267 286.231 92.7588 286.047 91.7999 286.15C91.1612 286.218 90.5424 286.412 89.9788 286.72C89.4152 287.029 88.918 287.445 88.5158 287.946C88.1135 288.447 87.814 289.022 87.6345 289.639C87.4551 290.255 87.3991 290.901 87.4699 291.54Z" fill="url(#paint8_linear_601_2175)"/>
<path d="M87.9999 355.24C82.3699 355.36 72.7299 350.16 68.9399 345.08C65.1499 340 75.8799 343.08 74.7599 339.08C73.6399 335.08 60.3499 338.08 57.8799 332.26C55.4099 326.44 65.0099 327.77 64.6199 324.8C64.2299 321.83 54.2899 322.46 51.0799 316.3C47.8699 310.14 56.6299 313.56 55.2499 311.01C53.8699 308.46 42.8799 297.71 47.4599 295.45C52.0399 293.19 62.3399 304.38 65.7899 305.63C69.2399 306.88 70.0199 299.12 74.4999 302.81C78.9799 306.5 75.6899 322.72 80.9699 324.81C84.8999 326.39 83.2099 318.98 87.7299 320.81C95.61 324.08 90.2399 355.19 87.9999 355.24Z" fill="url(#paint9_linear_601_2175)"/>
<g opacity="0.2">
<path d="M87.9999 355.24C82.3699 355.36 72.7299 350.16 68.9399 345.08C65.1499 340 75.8799 343.08 74.7599 339.08C73.6399 335.08 60.3499 338.08 57.8799 332.26C55.4099 326.44 65.0099 327.77 64.6199 324.8C64.2299 321.83 54.2899 322.46 51.0799 316.3C47.8699 310.14 56.6299 313.56 55.2499 311.01C53.8699 308.46 42.8799 297.71 47.4599 295.45C52.0399 293.19 62.3399 304.38 65.7899 305.63C69.2399 306.88 70.0199 299.12 74.4999 302.81C78.9799 306.5 75.6899 322.72 80.9699 324.81C84.8999 326.39 83.2099 318.98 87.7299 320.81C95.61 324.08 90.2399 355.19 87.9999 355.24Z" fill="white"/>
</g>
<path d="M96.05 348.09C96.14 348.25 95.3 349.09 98.05 349.16C104.9 349.44 117.05 348.98 121.56 342.75C128.06 333.86 113.08 334.68 114.56 329.75C116.04 324.82 132.11 328.85 135.25 321.85C138.39 314.85 126.68 316.22 127.25 312.61C127.82 309 140.07 313.68 144.12 306.25C148.17 298.82 137.44 302.8 139.12 299.72C140.8 296.64 154.52 283.86 149 281C143.48 278.14 130.69 291.52 126.47 293C122.25 294.48 121.27 281.32 115.73 285.71C110.19 290.1 113.82 309.89 107.35 312.35C102.53 314.18 105.16 307.08 99.21 307.35C91.14 307.68 88.48 335.44 96.05 348.09Z" fill="url(#paint10_linear_601_2175)"/>
<g opacity="0.3">
<path d="M96.05 348.09C96.14 348.25 95.3 349.09 98.05 349.16C104.9 349.44 117.05 348.98 121.56 342.75C128.06 333.86 113.08 334.68 114.56 329.75C116.04 324.82 132.11 328.85 135.25 321.85C138.39 314.85 126.68 316.22 127.25 312.61C127.82 309 140.07 313.68 144.12 306.25C148.17 298.82 137.44 302.8 139.12 299.72C140.8 296.64 154.52 283.86 149 281C143.48 278.14 130.69 291.52 126.47 293C122.25 294.48 121.27 281.32 115.73 285.71C110.19 290.1 113.82 309.89 107.35 312.35C102.53 314.18 105.16 307.08 99.21 307.35C91.14 307.68 88.48 335.44 96.05 348.09Z" fill="white"/>
</g>
<path d="M90.92 372.33C90.8611 372.324 90.804 372.306 90.7522 372.277C90.7005 372.248 90.655 372.21 90.6186 372.163C90.5822 372.116 90.5555 372.063 90.5403 372.005C90.5251 371.948 90.5216 371.889 90.53 371.83C96.15 325.83 122.66 307.11 122.93 306.93C122.978 306.897 123.032 306.874 123.089 306.862C123.146 306.85 123.204 306.849 123.261 306.86C123.318 306.871 123.373 306.893 123.421 306.924C123.47 306.956 123.512 306.997 123.545 307.045C123.578 307.093 123.601 307.147 123.613 307.204C123.625 307.26 123.625 307.319 123.615 307.376C123.604 307.433 123.582 307.488 123.551 307.536C123.519 307.585 123.478 307.627 123.43 307.66C123.17 307.85 96.99 326.35 91.43 371.94C91.4226 371.999 91.4035 372.056 91.3737 372.108C91.344 372.16 91.3042 372.206 91.2567 372.242C91.2093 372.278 91.155 372.305 91.0972 372.32C91.0394 372.335 90.9791 372.338 90.92 372.33Z" fill="#263238"/>
<path d="M116.85 313.32C116.76 313.318 116.674 313.288 116.602 313.234C116.53 313.181 116.477 313.106 116.45 313.02C116.412 312.908 116.42 312.784 116.472 312.677C116.525 312.571 116.617 312.489 116.73 312.45C116.9 312.4 120.85 311.15 127.31 312.52C127.425 312.547 127.526 312.617 127.591 312.715C127.656 312.814 127.681 312.934 127.66 313.05C127.636 313.167 127.567 313.269 127.467 313.335C127.368 313.4 127.247 313.424 127.13 313.4C120.91 312.08 117.05 313.29 117.01 313.3C116.958 313.317 116.904 313.324 116.85 313.32Z" fill="#263238"/>
<path d="M112 318.91C111.885 318.907 111.776 318.86 111.695 318.778C111.615 318.695 111.57 318.585 111.57 318.47C111.43 304.55 119.49 293.68 119.57 293.57C119.643 293.48 119.747 293.42 119.862 293.403C119.977 293.387 120.094 293.414 120.19 293.48C120.237 293.516 120.277 293.56 120.307 293.611C120.337 293.662 120.357 293.718 120.365 293.776C120.374 293.835 120.371 293.895 120.356 293.952C120.341 294.009 120.315 294.063 120.28 294.11C120.2 294.21 112.28 304.86 112.46 318.46C112.46 318.578 112.414 318.691 112.332 318.775C112.249 318.859 112.138 318.907 112.02 318.91H112Z" fill="#263238"/>
<path d="M104.06 330.69C104.003 330.689 103.947 330.676 103.895 330.652C103.844 330.627 103.798 330.593 103.76 330.55C103.718 330.509 103.685 330.46 103.662 330.406C103.639 330.352 103.627 330.294 103.627 330.235C103.627 330.176 103.639 330.118 103.662 330.064C103.685 330.01 103.718 329.961 103.76 329.92C103.82 329.87 109.76 324.35 117.6 327.15C117.697 327.2 117.772 327.283 117.812 327.385C117.852 327.486 117.854 327.598 117.817 327.701C117.781 327.804 117.708 327.89 117.613 327.943C117.518 327.996 117.407 328.013 117.3 327.99C110 325.37 104.43 330.52 104.38 330.57C104.338 330.611 104.287 330.642 104.232 330.663C104.177 330.684 104.119 330.693 104.06 330.69Z" fill="#263238"/>
<path d="M99.9299 338.91C99.8465 338.905 99.7661 338.877 99.6974 338.829C99.6287 338.782 99.5742 338.716 99.5399 338.64C97.5632 333.111 97.0701 327.16 98.1099 321.38C98.1184 321.322 98.1384 321.266 98.1688 321.216C98.1992 321.166 98.2394 321.122 98.2869 321.088C98.3344 321.053 98.3884 321.029 98.4456 321.015C98.5028 321.002 98.562 321 98.6199 321.01C98.7361 321.03 98.8399 321.094 98.9091 321.19C98.9782 321.285 99.0073 321.404 98.9899 321.52C98.0008 327.135 98.4726 332.91 100.36 338.29C100.383 338.343 100.395 338.401 100.396 338.459C100.397 338.517 100.387 338.574 100.365 338.628C100.344 338.682 100.312 338.731 100.272 338.773C100.231 338.814 100.183 338.847 100.13 338.87C100.067 338.898 99.9987 338.911 99.9299 338.91Z" fill="#263238"/>
<path d="M91.0899 388.77C90.9784 388.765 90.873 388.718 90.795 388.638C90.7171 388.558 90.6723 388.452 90.6699 388.34L90.0899 376.15C88.3799 335.62 60.5899 308.06 60.3099 307.79C60.2434 307.704 60.2101 307.598 60.216 307.489C60.2219 307.381 60.2667 307.279 60.3421 307.201C60.4175 307.123 60.5185 307.075 60.6265 307.066C60.7345 307.056 60.8422 307.086 60.9299 307.15C61.2099 307.43 89.2599 335.22 90.9799 376.15L91.5599 388.34C91.5626 388.458 91.5191 388.572 91.4388 388.658C91.3584 388.744 91.2475 388.795 91.1299 388.8L91.0899 388.77Z" fill="#263238"/>
<path d="M71.7699 323H71.6999C71.6526 322.997 71.6073 322.979 71.5699 322.95L71.4199 322.9C67.8045 321.389 63.9181 320.634 59.9999 320.68C59.8822 320.683 59.7682 320.639 59.6822 320.559C59.5962 320.479 59.5451 320.368 59.5399 320.25C59.5386 320.191 59.5489 320.132 59.5703 320.077C59.5917 320.022 59.6237 319.972 59.6646 319.929C59.7055 319.886 59.7543 319.852 59.8084 319.828C59.8625 319.804 59.9208 319.791 59.9799 319.79C64.0304 319.742 68.0483 320.518 71.7899 322.07L71.9299 322.13H72.0099C72.0986 322.173 72.1698 322.245 72.2117 322.334C72.2536 322.424 72.2635 322.524 72.2399 322.62C72.2249 322.732 72.1679 322.833 72.0805 322.904C71.9931 322.974 71.882 323.009 71.7699 323Z" fill="#263238"/>
<path d="M75.6999 328.23C75.6416 328.227 75.5846 328.211 75.5324 328.185C75.4802 328.158 75.434 328.121 75.3966 328.076C75.3591 328.032 75.3313 327.979 75.3146 327.923C75.298 327.867 75.293 327.808 75.2999 327.75C76.3699 315.75 70.1799 305.94 70.1099 305.85C70.0532 305.75 70.0373 305.631 70.0655 305.519C70.0938 305.407 70.1639 305.31 70.2616 305.249C70.3592 305.187 70.4768 305.165 70.5901 305.188C70.7033 305.211 70.8035 305.276 70.8699 305.37C70.9299 305.47 77.2899 315.55 76.1799 327.83C76.1749 327.888 76.1585 327.944 76.1316 327.996C76.1047 328.047 76.0679 328.093 76.0233 328.13C75.9786 328.167 75.9271 328.195 75.8716 328.213C75.8161 328.23 75.7578 328.236 75.6999 328.23Z" fill="#263238"/>
<path d="M79.7599 335.16C79.6467 335.158 79.5389 335.111 79.4599 335.03C77.9726 333.684 76.174 332.729 74.226 332.251C72.2779 331.772 70.2415 331.786 68.2999 332.29C68.1846 332.32 68.0618 332.304 67.9587 332.244C67.8555 332.184 67.7804 332.085 67.7499 331.97C67.735 331.913 67.7314 331.855 67.7394 331.797C67.7474 331.739 67.7669 331.683 67.7967 331.633C67.8265 331.583 67.866 331.539 67.9129 331.504C67.9598 331.469 68.0132 331.444 68.0699 331.43C70.1603 330.871 72.3587 330.852 74.4581 331.377C76.5575 331.902 78.4887 332.953 80.0699 334.43C80.112 334.471 80.1454 334.52 80.1682 334.574C80.191 334.628 80.2027 334.686 80.2027 334.745C80.2027 334.804 80.191 334.862 80.1682 334.916C80.1454 334.97 80.112 335.019 80.0699 335.06C80.0275 335.096 79.9783 335.124 79.925 335.141C79.8718 335.158 79.8157 335.165 79.7599 335.16Z" fill="#263238"/>
<path d="M84.91 346.58C84.8435 346.579 84.7783 346.562 84.72 346.53C84.6676 346.504 84.6211 346.467 84.5831 346.423C84.5451 346.378 84.5164 346.326 84.4987 346.27C84.481 346.214 84.4746 346.155 84.48 346.097C84.4854 346.039 84.5024 345.982 84.53 345.93C86.5682 341.325 87.3911 336.274 86.92 331.26C86.9117 331.142 86.95 331.026 87.0267 330.936C87.1034 330.846 87.2123 330.79 87.33 330.78C87.3886 330.775 87.4477 330.781 87.5038 330.799C87.5599 330.817 87.6119 330.846 87.6566 330.884C87.7014 330.922 87.738 330.969 87.7644 331.021C87.7907 331.074 87.8062 331.131 87.81 331.19C88.3203 336.371 87.4617 341.595 85.32 346.34C85.2818 346.415 85.2228 346.478 85.1501 346.52C85.0775 346.563 84.9941 346.584 84.91 346.58Z" fill="#263238"/>
<path d="M116.16 390.69C116.16 404.9 109.76 416.43 90.3999 416.43C71.9199 416.43 64.6499 404.9 64.6499 390.69C64.6461 385.529 66.1968 380.487 69.0999 376.22H111.71C114.613 380.487 116.164 385.529 116.16 390.69Z" fill="url(#paint11_linear_601_2175)"/>
<path opacity="0.7" d="M116.16 390.69C116.16 404.9 109.76 416.43 90.3999 416.43C71.9199 416.43 64.6499 404.9 64.6499 390.69C64.6461 385.529 66.1968 380.487 69.0999 376.22H111.71C114.613 380.487 116.164 385.529 116.16 390.69Z" fill="white"/>
<path d="M264.1 403.86L274.06 402.41L271.55 379.11L261.58 380.56L264.1 403.86Z" fill="#E8BFBF"/>
<path d="M281.72 402.76C282.583 402.694 283.399 402.342 284.04 401.76C284.174 401.59 284.265 401.391 284.305 401.178C284.345 400.966 284.333 400.747 284.27 400.54C284.24 400.412 284.179 400.294 284.092 400.196C284.004 400.098 283.894 400.024 283.77 399.98C282.44 399.5 278.77 402.19 278.39 402.49C278.349 402.521 278.319 402.563 278.303 402.611C278.287 402.659 278.286 402.711 278.3 402.76C278.316 402.805 278.347 402.843 278.386 402.87C278.425 402.897 278.472 402.911 278.52 402.91C279.589 402.955 280.66 402.905 281.72 402.76ZM283.12 400.42C283.268 400.386 283.422 400.386 283.57 400.42C283.622 400.436 283.669 400.466 283.706 400.507C283.743 400.547 283.768 400.597 283.78 400.65C283.821 400.787 283.829 400.932 283.803 401.073C283.777 401.214 283.718 401.347 283.63 401.46C283.12 402.09 281.49 402.46 279.23 402.46C280.413 401.575 281.739 400.899 283.15 400.46L283.12 400.42Z" fill="url(#paint12_linear_601_2175)"/>
<path d="M278.58 402.92H278.66C279.77 402.19 281.76 399.65 281.38 398.56C281.302 398.368 281.159 398.21 280.976 398.113C280.794 398.016 280.582 397.986 280.38 398.03C280.141 398.037 279.906 398.093 279.689 398.194C279.472 398.296 279.278 398.441 279.12 398.62C278.05 399.86 278.26 402.62 278.26 402.7C278.261 402.74 278.27 402.779 278.287 402.816C278.304 402.852 278.329 402.884 278.36 402.91C278.394 402.927 278.431 402.937 278.469 402.938C278.507 402.94 278.545 402.934 278.58 402.92ZM280.25 398.5L280.39 398.43C280.83 398.43 280.88 398.58 280.89 398.63C281.13 399.3 279.8 401.25 278.7 402.15C278.6 400.999 278.87 399.847 279.47 398.86C279.681 398.641 279.966 398.509 280.27 398.49L280.25 398.5Z" fill="url(#paint13_linear_601_2175)"/>
<path d="M273 398.28L264.17 400.39C263.978 400.429 263.808 400.537 263.692 400.694C263.575 400.851 263.521 401.046 263.54 401.24L263.83 414.03C263.859 414.242 263.93 414.446 264.039 414.631C264.147 414.816 264.291 414.977 264.462 415.106C264.633 415.235 264.827 415.33 265.035 415.383C265.242 415.437 265.458 415.45 265.67 415.42C265.733 415.426 265.797 415.426 265.86 415.42C269.68 414.42 271.49 413.82 276.35 412.69C279.35 412.01 288.78 411.29 292.65 409.57C296.52 407.85 295.01 403.93 293.25 404.3C287.57 405.52 280.25 403.09 276.14 399.39C275.62 399.08 273.65 398.13 273 398.28Z" fill="#263238"/>
<path opacity="0.2" d="M271.55 379.11L272.84 391.12L262.88 392.58L261.58 380.57L271.55 379.11Z" fill="black"/>
<path d="M276.87 386.18L258.44 389.62C258.44 389.62 249.49 376.84 247.8 367.77C246.04 358.32 247.92 326.16 247.8 325.77C242.59 308.17 228.42 262.57 221.59 245.77C217.8 236.47 215.14 230.21 215.14 230.21L217.05 229.78L232.1 223.62L243.1 225.68C243.1 225.68 276.41 293.05 279.9 318.39C282.47 337.29 276.87 386.18 276.87 386.18Z" fill="url(#paint14_linear_601_2175)"/>
<path opacity="0.3" d="M276.87 386.18L258.44 389.62C258.44 389.62 249.49 376.84 247.8 367.77C246.04 358.32 247.92 326.16 247.8 325.77C242.59 308.17 228.42 262.57 221.59 245.77C217.8 236.47 215.14 230.21 215.14 230.21L217.05 229.78L232.1 223.62L243.1 225.68C243.1 225.68 276.41 293.05 279.9 318.39C282.47 337.29 276.87 386.18 276.87 386.18Z" fill="white"/>
<path opacity="0.2" d="M243.46 310.49C238.25 292.89 227.73 266.2 220.89 249.42L216.36 233.42L215.49 230.34L217.08 233.25L234.93 272.79C242.81 288 243.58 310.92 243.46 310.49Z" fill="black"/>
<path d="M162.57 398.38L171.45 402.12L180.92 381.79L172.05 378.05L162.57 398.38Z" fill="#E8BFBF"/>
<path d="M177.23 406.37C177.933 406.811 178.766 406.998 179.59 406.9C179.79 406.847 179.975 406.745 180.126 406.604C180.278 406.463 180.393 406.286 180.46 406.09C180.511 405.976 180.531 405.85 180.519 405.726C180.507 405.601 180.462 405.482 180.39 405.38C179.63 404.26 175.3 404.27 174.82 404.27C174.772 404.275 174.727 404.292 174.688 404.32C174.65 404.348 174.619 404.386 174.6 404.43C174.588 404.475 174.589 404.523 174.603 404.567C174.617 404.611 174.644 404.651 174.68 404.68C175.476 405.321 176.33 405.887 177.23 406.37ZM179.63 405.37C179.768 405.428 179.889 405.521 179.98 405.64C180.004 405.684 180.017 405.734 180.017 405.785C180.017 405.836 180.004 405.886 179.98 405.93C179.933 406.058 179.857 406.173 179.758 406.267C179.66 406.361 179.54 406.43 179.41 406.47C178.65 406.67 177.2 406.03 175.41 404.75C176.836 404.718 178.256 404.931 179.61 405.38L179.63 405.37Z" fill="url(#paint15_linear_601_2175)"/>
<path d="M174.72 404.72H174.8C176.07 404.79 179.04 403.95 179.37 402.9C179.424 402.705 179.406 402.496 179.32 402.313C179.233 402.13 179.085 401.983 178.9 401.9C178.713 401.769 178.501 401.679 178.277 401.636C178.053 401.593 177.822 401.598 177.6 401.65C176.06 401.99 174.69 404.22 174.6 404.31C174.583 404.344 174.574 404.382 174.574 404.42C174.574 404.458 174.583 404.496 174.6 404.53C174.602 404.569 174.614 404.607 174.635 404.641C174.656 404.674 174.685 404.701 174.72 404.72ZM178.51 402.25H178.65C179 402.48 178.94 402.64 178.92 402.69C178.73 403.33 176.61 404.09 175.25 404.17C175.817 403.224 176.672 402.485 177.69 402.06C177.981 402.01 178.281 402.071 178.53 402.23L178.51 402.25Z" fill="url(#paint16_linear_601_2175)"/>
<path d="M173.06 398L165.06 394.64C164.887 394.553 164.686 394.535 164.5 394.591C164.314 394.647 164.157 394.772 164.06 394.94L157.06 404.94C156.962 405.12 156.9 405.319 156.878 405.523C156.857 405.727 156.876 405.934 156.934 406.131C156.993 406.328 157.09 406.511 157.219 406.671C157.349 406.83 157.509 406.963 157.69 407.06L157.86 407.14C161.35 408.57 163.11 409.09 167.5 410.97C170.19 412.13 177.89 416.92 181.85 417.77C185.81 418.62 186.85 414.77 185.29 414.04C180.22 411.77 175.96 405.77 174.85 400.58C174.6 400.08 173.62 398.23 173.06 398Z" fill="#263238"/>
<path opacity="0.2" d="M181.31 382.03L176.18 392.38L167.39 388.44L172.51 378.08L181.31 382.03Z" fill="black"/>
<path d="M183.16 393.31L165.48 383.89C165.48 383.89 162.09 371.3 165.48 363.27C172 347.82 188.98 325.1 189.09 324.67C193.62 306.89 201.56 258.18 204.28 240.27C205.78 230.34 206.67 228.2 206.67 228.2L208.54 228.81L235.54 228.86C235.54 228.86 240.64 269.86 221.08 333.26C216.22 349.04 208.08 362.16 194.65 379.91C191.054 384.572 187.219 389.045 183.16 393.31Z" fill="url(#paint17_linear_601_2175)"/>
<path opacity="0.3" d="M183.16 393.31L165.48 383.89C165.48 383.89 162.09 371.3 165.48 363.27C172 347.82 188.98 325.1 189.09 324.67C193.62 306.89 201.56 258.18 204.28 240.27C205.78 230.34 206.67 228.2 206.67 228.2L208.54 228.81L235.54 228.86C235.54 228.86 240.64 269.86 221.08 333.26C216.22 349.04 208.08 362.16 194.65 379.91C191.054 384.572 187.219 389.045 183.16 393.31Z" fill="white"/>
<path d="M259.56 195.39C259.969 192.14 261.346 189.088 263.51 186.63C264.06 186.05 266.17 185.17 267.37 184.39C273.24 180.54 285 175.73 285 175.73L288.63 178.89C288.63 178.89 281.47 185.81 277.21 189.13C276.37 189.79 275.4 190.58 274.38 191.42C272.52 192.96 263.8 198.71 262.14 200.16L259.56 195.39Z" fill="#E8BFBF"/>
<path d="M295.34 173.94L288.63 178.94L284.87 176.17C285.835 174.948 286.874 173.786 287.98 172.69C288.32 172.36 288.591 171.965 288.776 171.529C288.962 171.093 289.058 170.624 289.06 170.15C288.984 168.603 289.33 167.065 290.06 165.7C290.058 165.673 290.058 165.647 290.06 165.62C290.402 165.139 290.874 164.765 291.421 164.542C291.968 164.319 292.566 164.256 293.148 164.361C293.729 164.466 294.268 164.734 294.702 165.134C295.136 165.534 295.448 166.049 295.6 166.62L296.6 170.2C296.784 170.878 296.762 171.595 296.538 172.261C296.313 172.927 295.897 173.511 295.34 173.94Z" fill="#E8BFBF"/>
<path d="M261.7 196.73L259.93 198.35C259.38 197.91 258.51 197.2 257.41 196.28C248.79 189.13 227.18 171.77 235.79 166.82C243.18 162.57 251.02 175.56 254.93 179.47C256.766 181.427 258.357 183.599 259.67 185.94C261.51 189.26 262.87 193.27 261.7 196.73Z" fill="#263238"/>
<path d="M259.66 184.39C256.594 186.633 254.001 189.461 252.03 192.71C252.752 195.073 253.972 197.254 255.607 199.106C257.242 200.959 259.255 202.44 261.51 203.45C264.016 197.766 265.091 191.555 264.64 185.36C263.08 185 261.22 184.73 259.66 184.39Z" fill="#263238"/>
<path d="M212.21 165.81C209.12 166.81 205.59 166 203.61 168.57C201.63 171.14 201.04 174.51 201.04 177.75C201.222 182.257 201.913 186.728 203.1 191.08C204.34 196.413 205.583 201.73 206.83 207.03C207.68 210.67 206.78 227.58 207.69 227.86C207.69 227.86 235.96 227.31 243.05 226.31C243.05 226.31 243.66 208.93 244.23 203.01C244.36 201.7 246.35 196.12 246.58 194.72C247.69 188.12 245.52 183.47 243.24 177.17C243.24 177.17 238.24 167.1 235.79 166.82C231.44 166.33 220.8 163 212.21 165.81Z" fill="#263238"/>
<path d="M211 174.14C210.9 173.56 205.88 163.42 201.07 170.51C194.38 180.37 193.93 192.75 193.93 192.75C193.93 192.75 189.82 204.75 192.68 207.41C195.54 210.07 198.68 211.73 200.68 210.24C202.092 209.007 203.218 207.482 203.98 205.77C203.98 205.77 212.78 184.46 211 174.14Z" fill="#263238"/>
<path d="M210.69 162.05C210.202 162.489 209.821 163.034 209.577 163.642C209.332 164.251 209.23 164.908 209.278 165.563C209.326 166.217 209.524 166.852 209.855 167.418C210.186 167.984 210.643 168.467 211.19 168.83C210.897 169.858 210.899 170.948 211.198 171.975C211.497 173.002 212.079 173.923 212.878 174.634C213.678 175.344 214.661 175.814 215.716 175.991C216.77 176.167 217.853 176.042 218.84 175.63C218 177.15 218.95 179.16 220.42 180.1C221.971 180.902 223.676 181.359 225.42 181.44C227.171 181.523 228.85 182.157 230.22 183.25L235.56 175.56C236.344 174.62 236.853 173.481 237.03 172.27C237.08 171.06 236.16 169.72 234.95 169.81C235.557 169.155 235.894 168.296 235.896 167.404C235.898 166.512 235.564 165.651 234.96 164.994C234.356 164.337 233.526 163.932 232.637 163.859C231.747 163.786 230.863 164.05 230.16 164.6C230.246 164.075 230.176 163.537 229.959 163.052C229.742 162.567 229.388 162.156 228.94 161.87C228.031 161.322 227 161.009 225.94 160.96L210.69 162.05Z" fill="#263238"/>
<path d="M213.9 149C215.29 154.1 216.98 163.51 213.61 167.23C219.786 169.896 225.345 173.807 229.94 178.72C231.154 177.604 231.986 176.135 232.32 174.52C232.654 172.905 232.472 171.226 231.8 169.72C231.407 168.764 230.826 167.896 230.09 167.17C229.355 166.443 228.481 165.872 227.52 165.49C223.8 163.91 223.77 160.26 224.39 156.75L213.9 149Z" fill="#E8BFBF"/>
<path opacity="0.2" d="M216 157.69L219.51 158.64C221.015 159.049 222.588 159.141 224.13 158.91C224.001 159.991 224.113 161.088 224.46 162.12C223.285 162.574 222.004 162.676 220.772 162.415C219.54 162.154 218.41 161.541 217.52 160.65C216.871 159.743 216.359 158.746 216 157.69Z" fill="black"/>
<path d="M207.09 144.65C210.8 152.49 212.21 155.89 217.93 158.39C226.55 162.16 235.35 155.86 234.05 147.07C232.87 139.16 226.99 127.65 217.84 127.61C215.826 127.591 213.84 128.087 212.071 129.051C210.302 130.015 208.808 131.414 207.732 133.117C206.655 134.819 206.031 136.769 205.919 138.78C205.806 140.791 206.21 142.798 207.09 144.61V144.65Z" fill="#E8BFBF"/>
<path d="M211.17 129.67C208.46 128.41 205.1 129.44 202.84 131.42C200.58 133.4 199.15 136.26 197.84 139.01C197.051 140.473 196.446 142.028 196.04 143.64C195.636 145.271 195.857 146.994 196.66 148.47C197.088 149.16 197.675 149.738 198.37 150.157C199.065 150.576 199.85 150.824 200.66 150.88C201.158 150.911 201.639 151.077 202.049 151.361C202.46 151.644 202.785 152.035 202.99 152.49C203.195 153.331 203.195 154.209 202.99 155.05C202.8 155.866 202.8 156.714 202.99 157.53C203.263 158.172 203.71 158.724 204.281 159.123C204.852 159.523 205.524 159.754 206.22 159.79C207.613 159.829 209 159.605 210.31 159.13C210.709 158.994 211.137 158.966 211.55 159.051C211.963 159.135 212.346 159.328 212.66 159.61C212.82 159.757 212.955 159.929 213.06 160.12C213.162 160.294 213.31 160.435 213.488 160.53C213.666 160.624 213.866 160.668 214.067 160.655C214.268 160.643 214.461 160.575 214.626 160.459C214.791 160.344 214.92 160.185 215 160C216.21 157.12 214.45 152.53 211.83 149C210.44 147.14 210.51 147.61 209.97 145.35C209.51 143.47 210.2 141.51 211.04 139.77C212.17 137.44 213.61 135.18 213.16 132.4C213.075 131.818 212.85 131.264 212.503 130.789C212.156 130.313 211.699 129.929 211.17 129.67Z" fill="#263238"/>
<path d="M207.32 152.68C208.555 153.99 210.26 154.756 212.06 154.81C214.45 154.87 215.06 152.59 213.9 150.64C212.9 148.89 210.36 146.76 208.2 147.64C206.04 148.52 205.82 151 207.32 152.68Z" fill="#E8BFBF"/>
<path d="M222 143.26C222.28 143.94 222.83 144.31 223.26 144.13C223.69 143.95 223.8 143.3 223.56 142.63C223.32 141.96 222.74 141.63 222.3 141.76C221.86 141.89 221.77 142.6 222 143.26Z" fill="#263238"/>
<path d="M229.35 140.1C229.62 140.79 230.17 141.15 230.6 140.98C231.03 140.81 231.14 140.15 230.9 139.48C230.66 138.81 230.08 138.48 229.65 138.61C229.22 138.74 229.09 139.45 229.35 140.1Z" fill="#263238"/>
<path d="M229.46 138.73L230.85 137.64C230.85 137.64 230.55 139.19 229.46 138.73Z" fill="#263238"/>
<path d="M227.45 141.57C229.15 143.25 230.45 143.57 232.27 144.71C232.252 145.169 232.088 145.61 231.802 145.97C231.516 146.33 231.123 146.589 230.68 146.71L227.45 141.57Z" fill="#ED847E"/>
<path d="M229.9 149.92C230.218 149.803 230.526 149.659 230.82 149.49C230.866 149.465 230.901 149.422 230.916 149.372C230.931 149.321 230.925 149.267 230.9 149.22C230.871 149.175 230.827 149.142 230.775 149.127C230.724 149.112 230.668 149.117 230.62 149.14C229.855 149.584 228.995 149.84 228.111 149.885C227.228 149.93 226.346 149.764 225.54 149.4C225.491 149.375 225.434 149.371 225.382 149.388C225.329 149.405 225.286 149.441 225.26 149.49C225.246 149.514 225.237 149.54 225.233 149.567C225.23 149.594 225.232 149.621 225.24 149.647C225.247 149.674 225.26 149.698 225.277 149.719C225.294 149.74 225.316 149.758 225.34 149.77C226.052 150.098 226.822 150.28 227.605 150.306C228.388 150.332 229.168 150.201 229.9 149.92Z" fill="#263238"/>
<path d="M221.76 137.81C221.755 137.902 221.722 137.989 221.664 138.061C221.607 138.133 221.528 138.185 221.44 138.21C219.52 138.78 218.67 141.21 218.67 141.21C218.652 141.264 218.624 141.314 218.587 141.356C218.55 141.399 218.505 141.435 218.454 141.46C218.404 141.486 218.349 141.501 218.292 141.505C218.236 141.51 218.179 141.503 218.125 141.485C218.071 141.467 218.021 141.439 217.978 141.402C217.935 141.365 217.9 141.32 217.875 141.269C217.849 141.219 217.834 141.164 217.83 141.107C217.825 141.051 217.832 140.994 217.85 140.94C217.92 140.84 218.85 138.05 221.19 137.35C221.301 137.322 221.419 137.337 221.52 137.393C221.62 137.448 221.695 137.54 221.73 137.65C221.754 137.7 221.764 137.755 221.76 137.81Z" fill="#263238"/>
<path d="M230.61 136.63C230.536 136.683 230.446 136.711 230.355 136.711C230.264 136.711 230.174 136.683 230.1 136.63C228.54 135.37 226.05 136.06 226.04 136.07C225.986 136.087 225.928 136.093 225.871 136.087C225.815 136.082 225.76 136.065 225.709 136.038C225.659 136.011 225.615 135.974 225.579 135.93C225.543 135.886 225.516 135.835 225.5 135.78C225.469 135.67 225.481 135.552 225.536 135.451C225.59 135.35 225.681 135.275 225.79 135.24C225.91 135.24 228.79 134.42 230.64 135.94C230.727 136.014 230.782 136.118 230.795 136.231C230.808 136.344 230.778 136.458 230.71 136.55C230.682 136.582 230.648 136.609 230.61 136.63Z" fill="#263238"/>
<path d="M222.16 141.87L223.55 140.79C223.55 140.79 223.23 142.34 222.16 141.87Z" fill="#263238"/>
<path d="M211.77 128.36C210.676 128.456 209.618 128.8 208.675 129.364C207.733 129.929 206.931 130.7 206.33 131.62C205.53 132.86 205.25 134.74 206.43 135.62C207.032 135.987 207.725 136.178 208.43 136.17C211.43 136.44 215.22 134.09 215.22 134.09C214.05 129.09 224.48 125.27 229.62 132.97C231.13 135.23 230.72 136.87 233.23 137.92C234.41 138.41 235.97 138.27 236.73 139.31C237.98 141.02 235.57 143.92 237.1 145.39C238.15 146.39 240.53 146.01 240.68 147.46C240.74 148.14 240.3 149.12 240.95 149.32C241.31 149.43 241.65 149.1 241.88 148.8C242.505 148.129 242.964 147.32 243.22 146.44C243.342 146 243.315 145.531 243.143 145.108C242.971 144.685 242.664 144.33 242.27 144.1C241.63 143.81 239.94 144.1 240.05 144.82C239.791 143.234 239.707 141.624 239.8 140.02C240.08 138.68 241.36 137.51 240.97 136.19C240.58 134.87 238.89 134.19 237.44 134.01C235.99 133.83 234.34 133.62 233.44 132.46C232.54 131.3 232.9 129.3 232.58 127.69C232.312 126.684 231.81 125.755 231.115 124.98C230.42 124.205 229.551 123.605 228.58 123.23C222.73 120.72 213.76 121.08 211.77 128.36Z" fill="#263238"/>
<path d="M228.24 155L208.24 165.05C205.06 166.643 202.592 169.37 201.323 172.692C200.053 176.014 200.073 179.692 201.38 183L211 207.6C212.298 210.905 214.782 213.607 217.967 215.177C221.152 216.747 224.808 217.073 228.22 216.09L249.72 209.89C251.627 209.343 253.398 208.404 254.921 207.133C256.443 205.861 257.683 204.286 258.562 202.508C259.44 200.729 259.937 198.787 260.021 196.805C260.105 194.824 259.775 192.846 259.05 191L247.9 162.58C247.181 160.731 246.085 159.053 244.681 157.653C243.276 156.252 241.595 155.16 239.744 154.447C237.894 153.733 235.915 153.414 233.934 153.509C231.953 153.604 230.014 154.112 228.24 155ZM224.93 197.24C223.333 197.866 221.587 198.004 219.911 197.637C218.236 197.27 216.707 196.415 215.518 195.179C214.329 193.943 213.533 192.382 213.231 190.694C212.929 189.006 213.135 187.266 213.822 185.695C214.509 184.123 215.646 182.791 217.091 181.866C218.535 180.941 220.221 180.466 221.936 180.5C223.651 180.533 225.317 181.075 226.724 182.056C228.131 183.036 229.215 184.413 229.84 186.01C230.261 187.072 230.467 188.207 230.448 189.349C230.429 190.491 230.184 191.618 229.728 192.665C229.271 193.713 228.613 194.659 227.789 195.451C226.966 196.243 225.994 196.865 224.93 197.28V197.24Z" fill="url(#paint18_linear_601_2175)"/>
<path d="M228.24 155L208.24 165.05C205.06 166.643 202.592 169.37 201.323 172.692C200.053 176.014 200.073 179.692 201.38 183L211 207.6C212.298 210.905 214.782 213.607 217.967 215.177C221.152 216.747 224.808 217.073 228.22 216.09L249.72 209.89C251.627 209.343 253.398 208.404 254.921 207.133C256.443 205.861 257.683 204.286 258.562 202.508C259.44 200.729 259.937 198.787 260.021 196.805C260.105 194.824 259.775 192.846 259.05 191L247.9 162.58C247.181 160.731 246.085 159.053 244.681 157.653C243.276 156.252 241.595 155.16 239.744 154.447C237.894 153.733 235.915 153.414 233.934 153.509C231.953 153.604 230.014 154.112 228.24 155ZM224.93 197.24C223.333 197.866 221.587 198.004 219.911 197.637C218.236 197.27 216.707 196.415 215.518 195.179C214.329 193.943 213.533 192.382 213.231 190.694C212.929 189.006 213.135 187.266 213.822 185.695C214.509 184.123 215.646 182.791 217.091 181.866C218.535 180.941 220.221 180.466 221.936 180.5C223.651 180.533 225.317 181.075 226.724 182.056C228.131 183.036 229.215 184.413 229.84 186.01C230.261 187.072 230.467 188.207 230.448 189.349C230.429 190.491 230.184 191.618 229.728 192.665C229.271 193.713 228.613 194.659 227.789 195.451C226.966 196.243 225.994 196.865 224.93 197.28V197.24Z" fill="url(#paint19_linear_601_2175)"/>
<path opacity="0.1" d="M259.05 191L247.9 162.58C247.181 160.731 246.085 159.053 244.681 157.653C243.276 156.252 241.595 155.16 239.744 154.447C237.894 153.733 235.915 153.414 233.934 153.509C231.953 153.604 230.013 154.112 228.24 155L222.43 158L218.53 160L208.25 165.17C205.097 166.759 202.647 169.465 201.377 172.76C200.108 176.055 200.109 179.705 201.38 183L211 207.6C212.298 210.905 214.782 213.607 217.967 215.177C221.152 216.747 224.808 217.073 228.22 216.09L249.73 209.89C251.432 209.399 253.027 208.592 254.43 207.51C255.484 206.716 256.417 205.772 257.2 204.71C258.652 202.772 259.584 200.495 259.907 198.095C260.231 195.696 259.936 193.253 259.05 191ZM224.93 197.26C223.334 197.883 221.589 198.02 219.916 197.652C218.242 197.284 216.715 196.429 215.527 195.194C214.339 193.959 213.544 192.4 213.242 190.714C212.94 189.027 213.144 187.289 213.829 185.718C214.513 184.148 215.648 182.815 217.09 181.889C218.531 180.963 220.215 180.485 221.928 180.515C223.641 180.545 225.307 181.082 226.715 182.058C228.123 183.035 229.211 184.406 229.84 186C230.262 187.062 230.47 188.198 230.452 189.341C230.433 190.485 230.189 191.613 229.732 192.662C229.276 193.71 228.617 194.658 227.792 195.45C226.968 196.243 225.995 196.865 224.93 197.28V197.26Z" fill="white"/>
<path d="M228.44 156.92L209.69 166.34C206.715 167.833 204.406 170.384 203.215 173.492C202.023 176.6 202.036 180.041 203.25 183.14L212.3 206.2C213.51 209.307 215.837 211.85 218.824 213.33C221.812 214.81 225.245 215.12 228.45 214.2L248.61 208.38C250.395 207.865 252.052 206.984 253.477 205.792C254.902 204.6 256.062 203.124 256.884 201.458C257.706 199.792 258.17 197.973 258.249 196.117C258.328 194.261 258.018 192.409 257.34 190.68L246.89 164C246.213 162.268 245.181 160.696 243.862 159.385C242.543 158.074 240.964 157.053 239.228 156.387C237.492 155.72 235.635 155.423 233.778 155.515C231.92 155.607 230.102 156.086 228.44 156.92ZM213.69 192.37C213.065 190.773 212.927 189.028 213.294 187.353C213.661 185.678 214.517 184.15 215.752 182.961C216.988 181.772 218.548 180.977 220.236 180.675C221.923 180.373 223.663 180.578 225.234 181.264C226.805 181.95 228.137 183.087 229.063 184.531C229.988 185.974 230.464 187.659 230.432 189.373C230.399 191.088 229.859 192.754 228.88 194.161C227.901 195.568 226.526 196.654 224.93 197.28C223.87 197.697 222.737 197.901 221.598 197.881C220.459 197.86 219.335 197.614 218.291 197.158C217.247 196.702 216.303 196.044 215.513 195.222C214.724 194.401 214.104 193.431 213.69 192.37Z" fill="url(#paint20_linear_601_2175)"/>
<path opacity="0.1" d="M228.44 156.92L209.69 166.34C206.715 167.833 204.406 170.384 203.215 173.492C202.023 176.6 202.036 180.041 203.25 183.14L212.3 206.2C213.51 209.307 215.837 211.85 218.824 213.33C221.812 214.81 225.245 215.12 228.45 214.2L248.61 208.38C250.395 207.865 252.052 206.984 253.477 205.792C254.902 204.6 256.062 203.124 256.884 201.458C257.706 199.792 258.17 197.973 258.249 196.117C258.328 194.261 258.018 192.409 257.34 190.68L246.89 164C246.213 162.268 245.181 160.696 243.862 159.385C242.543 158.074 240.964 157.053 239.228 156.387C237.492 155.72 235.635 155.423 233.778 155.515C231.92 155.607 230.102 156.086 228.44 156.92ZM213.69 192.37C213.065 190.773 212.927 189.028 213.294 187.353C213.661 185.678 214.517 184.15 215.752 182.961C216.988 181.772 218.548 180.977 220.236 180.675C221.923 180.373 223.663 180.578 225.234 181.264C226.805 181.95 228.137 183.087 229.063 184.531C229.988 185.974 230.464 187.659 230.432 189.373C230.399 191.088 229.859 192.754 228.88 194.161C227.901 195.568 226.526 196.654 224.93 197.28C223.87 197.697 222.737 197.901 221.598 197.881C220.459 197.86 219.335 197.614 218.291 197.158C217.247 196.702 216.303 196.044 215.513 195.222C214.724 194.401 214.104 193.431 213.69 192.37Z" fill="url(#paint21_linear_601_2175)"/>
<path d="M321.62 148L321.05 149L320.73 149.58L319.82 151.23L320.2 155.46C320.22 155.639 320.2 155.82 320.14 155.99C320.078 156.174 319.977 156.342 319.845 156.484C319.712 156.625 319.55 156.736 319.37 156.81L311.47 159.9C311.289 159.972 311.095 160.002 310.901 159.988C310.707 159.974 310.519 159.917 310.35 159.82C310.238 159.764 310.137 159.689 310.05 159.6L305.58 155.05L299.22 157.54L300.14 159.89L293.79 162.37L295.3 166.24L290.63 168.07C290.443 168.142 290.244 168.174 290.044 168.164C289.844 168.153 289.648 168.101 289.47 168.01C289.348 167.952 289.237 167.874 289.14 167.78L286.45 165.25L280.09 167.73L281.61 171.6L274.93 174.22L276.45 178.1C276.51 178.251 276.539 178.412 276.536 178.574C276.533 178.737 276.498 178.897 276.433 179.046C276.368 179.194 276.274 179.329 276.157 179.441C276.04 179.553 275.901 179.641 275.75 179.7L257.46 186.86L249.52 166.61L315.7 140.7L316.7 141.23L320.05 142.96C320.492 143.179 320.885 143.486 321.205 143.861C321.525 144.236 321.766 144.673 321.913 145.144C322.06 145.615 322.109 146.111 322.059 146.602C322.009 147.093 321.859 147.568 321.62 148Z" fill="url(#paint22_linear_601_2175)"/>
<g opacity="0.1">
<path d="M321.62 148L321.05 149L320.73 149.58L319.82 151.23L320.2 155.46C320.22 155.639 320.2 155.82 320.14 155.99C320.078 156.174 319.977 156.342 319.845 156.484C319.712 156.625 319.55 156.736 319.37 156.81L311.47 159.9C311.289 159.972 311.095 160.002 310.901 159.988C310.707 159.974 310.519 159.917 310.35 159.82C310.238 159.764 310.137 159.689 310.05 159.6L305.58 155.05L299.22 157.54L300.14 159.89L293.79 162.37L295.3 166.24L290.63 168.07C290.443 168.142 290.244 168.174 290.044 168.164C289.844 168.153 289.648 168.101 289.47 168.01C289.348 167.952 289.237 167.874 289.14 167.78L286.45 165.25L280.09 167.73L281.61 171.6L274.93 174.22L276.45 178.1C276.51 178.251 276.539 178.412 276.536 178.574C276.533 178.737 276.498 178.897 276.433 179.046C276.368 179.194 276.274 179.329 276.157 179.441C276.04 179.553 275.901 179.641 275.75 179.7L257.46 186.86L249.52 166.61L315.7 140.7L316.7 141.23L320.05 142.96C320.492 143.179 320.885 143.486 321.205 143.861C321.525 144.236 321.766 144.673 321.913 145.144C322.06 145.615 322.109 146.111 322.059 146.602C322.009 147.093 321.859 147.568 321.62 148Z" fill="white"/>
</g>
<path d="M321.36 145.72L250.6 173.42L248.54 168.22L316 141.81L319.36 143.53C320.64 144.19 321.37 144.8 321.36 145.72Z" fill="url(#paint23_linear_601_2175)"/>
<path opacity="0.1" d="M321.36 145.72L250.6 173.42L248.54 168.22L316 141.81L319.36 143.53C320.64 144.19 321.37 144.8 321.36 145.72Z" fill="black"/>
<path d="M320 149.62L319.32 151.16C319.314 151.186 319.314 151.214 319.32 151.24L319.71 155.42C319.735 155.569 319.735 155.721 319.71 155.87C319.703 155.895 319.691 155.918 319.674 155.937C319.656 155.956 319.634 155.971 319.61 155.98L311.02 159.36C310.999 159.372 310.975 159.379 310.95 159.379C310.925 159.379 310.901 159.372 310.88 159.36C310.794 159.308 310.717 159.244 310.65 159.17L305.73 154.23C305.705 154.213 305.675 154.204 305.645 154.204C305.615 154.204 305.585 154.213 305.56 154.23L298.56 156.97C298.522 156.988 298.491 157.019 298.474 157.058C298.458 157.096 298.456 157.14 298.47 157.18L299.3 159.29C299.308 159.31 299.312 159.331 299.312 159.352C299.312 159.373 299.307 159.394 299.299 159.414C299.291 159.433 299.278 159.451 299.263 159.466C299.248 159.481 299.23 159.492 299.21 159.5L293.26 161.84C293.24 161.848 293.222 161.859 293.207 161.874C293.191 161.889 293.179 161.907 293.171 161.926C293.162 161.946 293.158 161.967 293.158 161.988C293.158 162.009 293.162 162.03 293.17 162.05L294.6 165.68C294.61 165.699 294.615 165.721 294.616 165.742C294.616 165.764 294.612 165.786 294.603 165.806C294.595 165.826 294.582 165.844 294.566 165.858C294.55 165.873 294.531 165.884 294.51 165.89L290.15 167.61C290.129 167.622 290.105 167.629 290.08 167.629C290.055 167.629 290.031 167.622 290.01 167.61C289.919 167.558 289.834 167.494 289.76 167.42L286.56 164.48C286.536 164.466 286.508 164.459 286.48 164.459C286.452 164.459 286.424 164.466 286.4 164.48L279.47 167.21C279.449 167.216 279.43 167.227 279.414 167.242C279.398 167.256 279.385 167.274 279.376 167.294C279.368 167.314 279.364 167.336 279.364 167.357C279.365 167.379 279.37 167.4 279.38 167.42L280.84 171.14C280.85 171.159 280.855 171.181 280.856 171.202C280.856 171.224 280.852 171.246 280.843 171.266C280.835 171.286 280.822 171.304 280.806 171.318C280.79 171.333 280.771 171.344 280.75 171.35L254.14 181.82C254.101 181.833 254.059 181.831 254.022 181.815C253.985 181.798 253.956 181.768 253.94 181.73L251.2 175C251.186 174.96 251.188 174.916 251.204 174.878C251.221 174.839 251.252 174.808 251.29 174.79L320.63 147.5C320.66 147.489 320.693 147.487 320.724 147.494C320.755 147.502 320.783 147.518 320.805 147.542C320.826 147.566 320.84 147.595 320.845 147.627C320.849 147.659 320.844 147.691 320.83 147.72L320 149.62Z" fill="url(#paint24_linear_601_2175)"/>
<path opacity="0.1" d="M320 149.62L319.32 151.16C319.314 151.186 319.314 151.214 319.32 151.24L319.71 155.42C319.735 155.569 319.735 155.721 319.71 155.87C319.703 155.895 319.691 155.918 319.674 155.937C319.656 155.956 319.634 155.971 319.61 155.98L311.02 159.36C310.999 159.372 310.975 159.379 310.95 159.379C310.925 159.379 310.901 159.372 310.88 159.36C310.794 159.308 310.717 159.244 310.65 159.17L305.73 154.23C305.705 154.213 305.675 154.204 305.645 154.204C305.615 154.204 305.585 154.213 305.56 154.23L298.56 156.97C298.522 156.988 298.491 157.019 298.474 157.058C298.458 157.096 298.456 157.14 298.47 157.18L299.3 159.29C299.308 159.31 299.312 159.331 299.312 159.352C299.312 159.373 299.307 159.394 299.299 159.414C299.291 159.433 299.278 159.451 299.263 159.466C299.248 159.481 299.23 159.492 299.21 159.5L293.26 161.84C293.24 161.848 293.222 161.859 293.207 161.874C293.191 161.889 293.179 161.907 293.171 161.926C293.162 161.946 293.158 161.967 293.158 161.988C293.158 162.009 293.162 162.03 293.17 162.05L294.6 165.68C294.61 165.699 294.615 165.721 294.616 165.742C294.616 165.764 294.612 165.786 294.603 165.806C294.595 165.826 294.582 165.844 294.566 165.858C294.55 165.873 294.531 165.884 294.51 165.89L290.15 167.61C290.129 167.622 290.105 167.629 290.08 167.629C290.055 167.629 290.031 167.622 290.01 167.61C289.919 167.558 289.834 167.494 289.76 167.42L286.56 164.48C286.536 164.466 286.508 164.459 286.48 164.459C286.452 164.459 286.424 164.466 286.4 164.48L279.47 167.21C279.449 167.216 279.43 167.227 279.414 167.242C279.398 167.256 279.385 167.274 279.376 167.294C279.368 167.314 279.364 167.336 279.364 167.357C279.365 167.379 279.37 167.4 279.38 167.42L280.84 171.14C280.85 171.159 280.855 171.181 280.856 171.202C280.856 171.224 280.852 171.246 280.843 171.266C280.835 171.286 280.822 171.304 280.806 171.318C280.79 171.333 280.771 171.344 280.75 171.35L254.14 181.82C254.101 181.833 254.059 181.831 254.022 181.815C253.985 181.798 253.956 181.768 253.94 181.73L251.2 175C251.186 174.96 251.188 174.916 251.204 174.878C251.221 174.839 251.252 174.808 251.29 174.79L320.63 147.5C320.66 147.489 320.693 147.487 320.724 147.494C320.755 147.502 320.783 147.518 320.805 147.542C320.826 147.566 320.84 147.595 320.845 147.627C320.849 147.659 320.844 147.691 320.83 147.72L320 149.62Z" fill="black"/>
<path opacity="0.3" d="M218.07 179C216.07 179.786 214.348 181.147 213.121 182.912C211.894 184.676 211.218 186.765 211.178 188.913C211.137 191.062 211.735 193.174 212.895 194.983C214.055 196.792 215.725 198.217 217.694 199.078C219.663 199.938 221.843 200.195 223.959 199.817C226.074 199.439 228.03 198.442 229.579 196.953C231.129 195.463 232.202 193.548 232.663 191.449C233.124 189.35 232.952 187.161 232.17 185.16C231.652 183.827 230.876 182.61 229.885 181.578C228.895 180.546 227.711 179.721 226.401 179.148C225.09 178.576 223.68 178.268 222.25 178.242C220.821 178.217 219.4 178.474 218.07 179ZM224.93 197.3C223.333 197.926 221.587 198.064 219.911 197.697C218.236 197.331 216.707 196.475 215.518 195.239C214.329 194.003 213.533 192.443 213.231 190.754C212.929 189.066 213.135 187.326 213.822 185.755C214.509 184.183 215.647 182.851 217.091 181.926C218.535 181.001 220.221 180.526 221.936 180.56C223.651 180.593 225.317 181.135 226.724 182.116C228.131 183.097 229.215 184.473 229.84 186.07C230.671 188.208 230.621 190.588 229.701 192.689C228.78 194.79 227.065 196.441 224.93 197.28V197.3Z" fill="white"/>
<path opacity="0.1" d="M257.21 204.7C256.431 205.762 255.501 206.706 254.45 207.5L218.52 159.91C218.52 159.91 221.69 158.32 222.41 157.84C222.416 157.893 222.433 157.944 222.46 157.99C224 161.32 252.24 198 257.21 204.7Z" fill="white"/>
<path opacity="0.1" d="M252 209C251.78 209.1 241.31 212.29 241.31 212.29L229.64 196.84C231.401 195.08 232.504 192.769 232.766 190.293C233.027 187.817 232.43 185.326 231.076 183.237C229.721 181.148 227.69 179.588 225.323 178.816C222.956 178.045 220.395 178.11 218.07 179C217.587 179.181 217.122 179.405 216.68 179.67L206.36 166C206.36 166 215.43 161.68 216.43 161C216.7 162.93 252 208.6 252 209Z" fill="white"/>
<path d="M209.19 133.94C208.603 134.636 208.184 135.457 207.965 136.341C207.746 137.225 207.732 138.147 207.925 139.037C208.119 139.926 208.513 140.76 209.079 141.473C209.645 142.186 210.367 142.76 211.19 143.15C212.05 143.55 212.99 143.74 213.83 144.15C214.268 144.327 214.656 144.611 214.956 144.976C215.256 145.341 215.461 145.775 215.55 146.24C215.65 147.24 214.88 148.24 214.96 149.24C215.046 149.708 215.228 150.153 215.495 150.547C215.762 150.942 216.107 151.276 216.51 151.53C217.32 152.036 218.004 152.72 218.51 153.53C218.624 153.735 218.694 153.962 218.716 154.196C218.738 154.43 218.712 154.666 218.638 154.89C218.565 155.113 218.447 155.319 218.29 155.494C218.134 155.67 217.943 155.811 217.73 155.91C217.622 156.1 217.566 156.316 217.566 156.535C217.566 156.754 217.622 156.969 217.73 157.16C217.858 157.29 218.026 157.373 218.208 157.397C218.389 157.42 218.573 157.383 218.73 157.29C219.441 156.845 220.031 156.232 220.448 155.505C220.865 154.777 221.096 153.958 221.12 153.12C221.11 152.289 220.867 151.478 220.418 150.78C219.969 150.081 219.332 149.523 218.58 149.17C218.485 148.871 218.451 148.555 218.48 148.242C218.509 147.93 218.601 147.626 218.75 147.35C219.2 146.21 219.66 145.06 220.12 143.92C220.194 143.64 220.206 143.348 220.156 143.063C220.106 142.778 219.995 142.507 219.83 142.27C219.489 141.926 219.075 141.663 218.62 141.5L215.67 140.24C214.56 139.76 211.25 135.34 215.17 134.05C214.934 133.549 214.565 133.124 214.102 132.82C213.64 132.517 213.103 132.347 212.55 132.33C211.9 132.298 211.253 132.429 210.666 132.71C210.08 132.991 209.572 133.414 209.19 133.94Z" fill="#263238"/>
<path d="M214.54 129.18L214.24 132.67C215.24 131.07 217.03 127.96 216.97 128.08C216.2 128.5 215.31 128.76 214.54 129.18Z" fill="#263238"/>
<path d="M215.86 131.09L219.96 127.3C219.426 127.115 218.851 127.085 218.301 127.212C217.751 127.339 217.248 127.62 216.85 128.02C216.88 127.93 216.24 129.87 215.86 131.09Z" fill="#263238"/>
<path d="M207.53 225.7C202.2 232.32 203.97 237.39 196.61 249.11C205.9 255.99 216.08 257.11 228.73 256.11C230.23 253.46 230.98 250.7 232.48 248.05C234.62 250.71 236.34 252.94 238.48 255.61C245.11 254.61 252.99 252.7 258.23 249.32C253.6 244.01 250.72 237.38 247.76 231.53C246.37 228.78 246.95 227.63 243.26 224.03C231.51 224.57 219.86 224.85 208.12 225.4C208.44 225.45 207.22 225.68 207.53 225.7Z" fill="#263238"/>
<path d="M209 224.59L208.27 227.68C208.16 227.93 208.45 228.16 208.84 228.13L241.23 226.7C241.353 226.715 241.478 226.686 241.582 226.618C241.686 226.551 241.763 226.449 241.8 226.33L241.97 223.26C241.97 223.06 241.7 222.88 241.36 222.91L209.55 224.31C209.442 224.306 209.335 224.329 209.238 224.378C209.142 224.427 209.06 224.5 209 224.59Z" fill="url(#paint25_linear_601_2175)"/>
<path d="M209 224.59L208.27 227.68C208.16 227.93 208.45 228.16 208.84 228.13L241.23 226.7C241.353 226.715 241.478 226.686 241.582 226.618C241.686 226.551 241.763 226.449 241.8 226.33L241.97 223.26C241.97 223.06 241.7 222.88 241.36 222.91L209.55 224.31C209.442 224.306 209.335 224.329 209.238 224.378C209.142 224.427 209.06 224.5 209 224.59Z" fill="url(#paint26_linear_601_2175)"/>
<path d="M216.13 228.14H215.19C215.01 228.14 214.86 228.06 214.87 227.95L215.12 223.95C215.12 223.83 215.29 223.73 215.47 223.73L216.42 223.68C216.59 223.68 216.74 223.76 216.73 223.88L216.48 227.88C216.47 228 216.31 228.13 216.13 228.14Z" fill="#263238"/>
<path d="M239.51 227.13H238.57C238.39 227.13 238.24 227.05 238.25 226.94L238.5 222.94C238.5 222.82 238.67 222.71 238.85 222.71H239.79C239.97 222.71 240.11 222.79 240.1 222.9L239.85 226.9C239.85 227 239.7 227.12 239.51 227.13Z" fill="#263238"/>
<path d="M220.31 208.72C220.37 209.01 222.88 213.01 224.86 212.72C225.142 212.681 225.428 212.717 225.692 212.824C225.955 212.931 226.185 213.106 226.36 213.33C227.15 214.33 227.63 214.95 228.16 215.63C228.58 216.167 229.171 216.544 229.834 216.7C230.497 216.857 231.194 216.783 231.81 216.49C232.18 216.32 232.55 216.13 232.92 215.93C233.517 215.618 233.992 215.114 234.268 214.499C234.544 213.884 234.604 213.194 234.44 212.54C234.073 211.065 233.504 209.649 232.75 208.33C232.527 207.86 232.182 207.46 231.75 207.17C229.671 206.375 227.495 205.863 225.28 205.65C223.58 205.72 221.92 208 220.31 208.72Z" fill="#E8BFBF"/>
<path d="M225.38 205.53C225.38 205.53 198.8 197.48 193.06 202.84C189.69 205.99 191.28 208.97 193.17 210.84C194.57 212.27 197.62 211.92 199.62 211.84L220.56 209.78L225.38 205.53Z" fill="#E8BFBF"/>
<path d="M210.1 201.85C209.981 201.134 209.685 200.46 209.24 199.887C208.795 199.315 208.214 198.862 207.55 198.57C206.219 198.006 204.803 197.668 203.36 197.57L193.36 196.3C191.563 198.516 190.553 201.267 190.49 204.12C190.561 206.879 191.57 209.531 193.35 211.64C194.95 208.55 197.06 205.37 200.18 203.83C203.3 202.29 206.68 201.23 210.1 201.85Z" fill="#263238"/>
<path opacity="0.1" d="M203.25 153.3C203.25 153.24 203.25 153.21 203.25 153.2C203.46 153.14 203.43 153.18 203.25 153.3Z" fill="white"/>
<path d="M269.29 110.26L276.69 124L306.91 98.3398C306.963 98.2937 306.997 98.2293 307.004 98.1596C307.012 98.0898 306.993 98.0197 306.952 97.9631C306.91 97.9064 306.849 97.8675 306.78 97.8539C306.711 97.8403 306.64 97.8531 306.58 97.8898L278.25 116.59L273.89 108.07L269.29 110.26Z" fill="url(#paint27_linear_601_2175)"/>
<path d="M252.59 137.63L264.81 124C262.978 122.217 261.516 120.089 260.507 117.74C259.498 115.391 258.962 112.866 258.93 110.31C258.93 97.73 272.09 87.5 288.27 87.5C304.45 87.5 317.62 97.73 317.62 110.31C317.62 122.89 304.45 133.11 288.27 133.11C282.576 133.159 276.954 131.824 271.89 129.22L252.59 137.63ZM288.27 88.82C272.81 88.82 260.27 98.47 260.27 110.33C260.311 112.819 260.857 115.274 261.877 117.545C262.896 119.816 264.367 121.855 266.2 123.54L266.64 123.97L257.59 134.06L272 127.8L272.28 127.95C277.212 130.542 282.708 131.875 288.28 131.83C303.75 131.83 316.33 122.19 316.33 110.33C316.33 98.47 303.74 88.82 288.27 88.82Z" fill="url(#paint28_linear_601_2175)"/>
<defs>
<linearGradient id="paint0_linear_601_2175" x1="90.9539" y1="274.061" x2="90.9539" y2="288.506" gradientUnits="userSpaceOnUse">
<stop stop-color="#FFC444"/>
<stop offset="1" stop-color="#F36F56"/>
</linearGradient>
<linearGradient id="paint1_linear_601_2175" x1="93.6971" y1="293.514" x2="93.6971" y2="307.959" gradientUnits="userSpaceOnUse">
<stop stop-color="#FFC444"/>
<stop offset="1" stop-color="#F36F56"/>
</linearGradient>
<linearGradient id="paint2_linear_601_2175" x1="82.6484" y1="288.249" x2="82.6484" y2="296.504" gradientUnits="userSpaceOnUse">
<stop stop-color="#FFC444"/>
<stop offset="1" stop-color="#F36F56"/>
</linearGradient>
<linearGradient id="paint3_linear_601_2175" x1="102.092" y1="285.516" x2="102.092" y2="293.77" gradientUnits="userSpaceOnUse">
<stop stop-color="#FFC444"/>
<stop offset="1" stop-color="#F36F56"/>
</linearGradient>
<linearGradient id="paint4_linear_601_2175" x1="84.2998" y1="278.672" x2="84.2998" y2="289.906" gradientUnits="userSpaceOnUse">
<stop stop-color="#FFC444"/>
<stop offset="1" stop-color="#F36F56"/>
</linearGradient>
<linearGradient id="paint5_linear_601_2175" x1="100.363" y1="292.114" x2="100.363" y2="303.284" gradientUnits="userSpaceOnUse">
<stop stop-color="#FFC444"/>
<stop offset="1" stop-color="#F36F56"/>
</linearGradient>
<linearGradient id="paint6_linear_601_2175" x1="85.6717" y1="292.735" x2="85.6717" y2="305.183" gradientUnits="userSpaceOnUse">
<stop stop-color="#FFC444"/>
<stop offset="1" stop-color="#F36F56"/>
</linearGradient>
<linearGradient id="paint7_linear_601_2175" x1="99.0439" y1="276.672" x2="99.0439" y2="289.288" gradientUnits="userSpaceOnUse">
<stop stop-color="#FFC444"/>
<stop offset="1" stop-color="#F36F56"/>
</linearGradient>
<linearGradient id="paint8_linear_601_2175" x1="92.3202" y1="286.122" x2="92.3202" y2="295.882" gradientUnits="userSpaceOnUse">
<stop stop-color="#FFC444"/>
<stop offset="1" stop-color="#F36F56"/>
</linearGradient>
<linearGradient id="paint9_linear_601_2175" x1="69.1129" y1="295.149" x2="69.1129" y2="355.242" gradientUnits="userSpaceOnUse">
<stop stop-color="#FFC444"/>
<stop offset="1" stop-color="#F36F56"/>
</linearGradient>
<linearGradient id="paint10_linear_601_2175" x1="120.934" y1="280.601" x2="120.934" y2="349.221" gradientUnits="userSpaceOnUse">
<stop stop-color="#FFC444"/>
<stop offset="1" stop-color="#F36F56"/>
</linearGradient>
<linearGradient id="paint11_linear_601_2175" x1="90.4049" y1="376.22" x2="90.4049" y2="416.43" gradientUnits="userSpaceOnUse">
<stop stop-color="#FFC444"/>
<stop offset="1" stop-color="#F36F56"/>
</linearGradient>
<linearGradient id="paint12_linear_601_2175" x1="281.309" y1="399.923" x2="281.309" y2="402.926" gradientUnits="userSpaceOnUse">
<stop stop-color="#FFC444"/>
<stop offset="1" stop-color="#F36F56"/>
</linearGradient>
<linearGradient id="paint13_linear_601_2175" x1="279.835" y1="398.01" x2="279.835" y2="402.939" gradientUnits="userSpaceOnUse">
<stop stop-color="#FFC444"/>
<stop offset="1" stop-color="#F36F56"/>
</linearGradient>
<linearGradient id="paint14_linear_601_2175" x1="247.857" y1="223.62" x2="247.857" y2="389.62" gradientUnits="userSpaceOnUse">
<stop stop-color="#FFC444"/>
<stop offset="1" stop-color="#F36F56"/>
</linearGradient>
<linearGradient id="paint15_linear_601_2175" x1="177.557" y1="404.27" x2="177.557" y2="406.925" gradientUnits="userSpaceOnUse">
<stop stop-color="#FFC444"/>
<stop offset="1" stop-color="#F36F56"/>
</linearGradient>
<linearGradient id="paint16_linear_601_2175" x1="176.987" y1="401.607" x2="176.987" y2="404.724" gradientUnits="userSpaceOnUse">
<stop stop-color="#FFC444"/>
<stop offset="1" stop-color="#F36F56"/>
</linearGradient>
<linearGradient id="paint17_linear_601_2175" x1="200.056" y1="228.2" x2="200.056" y2="393.31" gradientUnits="userSpaceOnUse">
<stop stop-color="#FFC444"/>
<stop offset="1" stop-color="#F36F56"/>
</linearGradient>
<linearGradient id="paint18_linear_601_2175" x1="230.21" y1="153.493" x2="230.21" y2="216.647" gradientUnits="userSpaceOnUse">
<stop stop-color="#FFC444"/>
<stop offset="1" stop-color="#F36F56"/>
</linearGradient>
<linearGradient id="paint19_linear_601_2175" x1="230.21" y1="153.493" x2="230.21" y2="216.647" gradientUnits="userSpaceOnUse">
<stop stop-color="#FFC444"/>
<stop offset="1" stop-color="#F36F56"/>
</linearGradient>
<linearGradient id="paint20_linear_601_2175" x1="230.296" y1="155.499" x2="230.296" y2="214.72" gradientUnits="userSpaceOnUse">
<stop stop-color="#FFC444"/>
<stop offset="1" stop-color="#F36F56"/>
</linearGradient>
<linearGradient id="paint21_linear_601_2175" x1="230.296" y1="155.499" x2="230.296" y2="214.72" gradientUnits="userSpaceOnUse">
<stop stop-color="#FFC444"/>
<stop offset="1" stop-color="#F36F56"/>
</linearGradient>
<linearGradient id="paint22_linear_601_2175" x1="285.799" y1="140.7" x2="285.799" y2="186.86" gradientUnits="userSpaceOnUse">
<stop stop-color="#FFC444"/>
<stop offset="1" stop-color="#F36F56"/>
</linearGradient>
<linearGradient id="paint23_linear_601_2175" x1="284.95" y1="141.81" x2="284.95" y2="173.42" gradientUnits="userSpaceOnUse">
<stop stop-color="#FFC444"/>
<stop offset="1" stop-color="#F36F56"/>
</linearGradient>
<linearGradient id="paint24_linear_601_2175" x1="286.018" y1="147.49" x2="286.018" y2="181.829" gradientUnits="userSpaceOnUse">
<stop stop-color="#FFC444"/>
<stop offset="1" stop-color="#F36F56"/>
</linearGradient>
<linearGradient id="paint25_linear_601_2175" x1="225.108" y1="222.907" x2="225.108" y2="228.133" gradientUnits="userSpaceOnUse">
<stop stop-color="#FFC444"/>
<stop offset="1" stop-color="#F36F56"/>
</linearGradient>
<linearGradient id="paint26_linear_601_2175" x1="225.108" y1="222.907" x2="225.108" y2="228.133" gradientUnits="userSpaceOnUse">
<stop stop-color="#FFC444"/>
<stop offset="1" stop-color="#F36F56"/>
</linearGradient>
<linearGradient id="paint27_linear_601_2175" x1="288.148" y1="97.8486" x2="288.148" y2="124" gradientUnits="userSpaceOnUse">
<stop stop-color="#FFC444"/>
<stop offset="1" stop-color="#F36F56"/>
</linearGradient>
<linearGradient id="paint28_linear_601_2175" x1="285.105" y1="87.5" x2="285.105" y2="137.63" gradientUnits="userSpaceOnUse">
<stop stop-color="#FFC444"/>
<stop offset="1" stop-color="#F36F56"/>
</linearGradient>
</defs>
</svg>
