<svg width="24" height="24" viewBox="0 0 24 24" fill="none" xmlns="http://www.w3.org/2000/svg">
    <path
        d="M6.80957 18.7559H17.1832C18.8179 18.7559 19.6692 17.9121 19.6692 16.2999V7.1317C19.6692 5.51953 18.8179 4.67578 17.1832 4.67578H6.80957C5.18234 4.67578 4.33105 5.512 4.33105 7.1317V16.2999C4.33105 17.9121 5.18234 18.7559 6.80957 18.7559ZM6.80204 17.2567C6.17676 17.2567 5.83022 16.9328 5.83022 16.2698V9.33901C5.83022 8.67606 6.17676 8.35212 6.80204 8.35212H17.1907C17.816 8.35212 18.1625 8.67606 18.1625 9.33901V16.2698C18.1625 16.9328 17.816 17.2567 17.1907 17.2567H6.80204ZM10.5462 10.9512H10.9907C11.2619 10.9512 11.3523 10.8683 11.3523 10.6046V10.1602C11.3523 9.88895 11.2619 9.80608 10.9907 9.80608H10.5462C10.275 9.80608 10.1846 9.88895 10.1846 10.1602V10.6046C10.1846 10.8683 10.275 10.9512 10.5462 10.9512ZM13.0096 10.9512H13.4541C13.7178 10.9512 13.8082 10.8683 13.8082 10.6046V10.1602C13.8082 9.88895 13.7178 9.80608 13.4541 9.80608H13.0096C12.7384 9.80608 12.648 9.88895 12.648 10.1602V10.6046C12.648 10.8683 12.7384 10.9512 13.0096 10.9512ZM15.4655 10.9512H15.91C16.1812 10.9512 16.2716 10.8683 16.2716 10.6046V10.1602C16.2716 9.88895 16.1812 9.80608 15.91 9.80608H15.4655C15.2019 9.80608 15.1115 9.88895 15.1115 10.1602V10.6046C15.1115 10.8683 15.2019 10.9512 15.4655 10.9512ZM8.09026 13.377H8.5272C8.79841 13.377 8.88881 13.2941 8.88881 13.0229V12.5784C8.88881 12.3147 8.79841 12.2319 8.5272 12.2319H8.09026C7.81906 12.2319 7.72865 12.3147 7.72865 12.5784V13.0229C7.72865 13.2941 7.81906 13.377 8.09026 13.377ZM10.5462 13.377H10.9907C11.2619 13.377 11.3523 13.2941 11.3523 13.0229V12.5784C11.3523 12.3147 11.2619 12.2319 10.9907 12.2319H10.5462C10.275 12.2319 10.1846 12.3147 10.1846 12.5784V13.0229C10.1846 13.2941 10.275 13.377 10.5462 13.377ZM13.0096 13.377H13.4541C13.7178 13.377 13.8082 13.2941 13.8082 13.0229V12.5784C13.8082 12.3147 13.7178 12.2319 13.4541 12.2319H13.0096C12.7384 12.2319 12.648 12.3147 12.648 12.5784V13.0229C12.648 13.2941 12.7384 13.377 13.0096 13.377ZM15.4655 13.377H15.91C16.1812 13.377 16.2716 13.2941 16.2716 13.0229V12.5784C16.2716 12.3147 16.1812 12.2319 15.91 12.2319H15.4655C15.2019 12.2319 15.1115 12.3147 15.1115 12.5784V13.0229C15.1115 13.2941 15.2019 13.377 15.4655 13.377ZM8.09026 15.7952H8.5272C8.79841 15.7952 8.88881 15.7123 8.88881 15.4487V15.0042C8.88881 14.733 8.79841 14.6501 8.5272 14.6501H8.09026C7.81906 14.6501 7.72865 14.733 7.72865 15.0042V15.4487C7.72865 15.7123 7.81906 15.7952 8.09026 15.7952ZM10.5462 15.7952H10.9907C11.2619 15.7952 11.3523 15.7123 11.3523 15.4487V15.0042C11.3523 14.733 11.2619 14.6501 10.9907 14.6501H10.5462C10.275 14.6501 10.1846 14.733 10.1846 15.0042V15.4487C10.1846 15.7123 10.275 15.7952 10.5462 15.7952ZM13.0096 15.7952H13.4541C13.7178 15.7952 13.8082 15.7123 13.8082 15.4487V15.0042C13.8082 14.733 13.7178 14.6501 13.4541 14.6501H13.0096C12.7384 14.6501 12.648 14.733 12.648 15.0042V15.4487C12.648 15.7123 12.7384 15.7952 13.0096 15.7952Z"
        fill="#E5E5E5" />
</svg>